<svg xmlns="http://www.w3.org/2000/svg" fill="none" aria-hidden="true" viewBox="0 0 28 20"><g clip-path="url(#clip0)"><path fill="#fff" d="M0 0h28v20H0V0z"/><path fill="#E4233B" d="M0 0h28v20H0V0z"/><path fill="#34CD4E" fill-rule="evenodd" d="M0 0l12 10L0 20V0zm28 0L16 10l12 10V0z" clip-rule="evenodd"/><path fill="#fff" fill-rule="evenodd" d="M16.962 6.394A4.648 4.648 0 0014 5.334a4.648 4.648 0 00-2.962 1.06l-12.32-8.31-1.492 2.21 12.32 8.31a4.665 4.665 0 000 2.792l-12.32 8.31 1.492 2.21 12.32-8.31A4.648 4.648 0 0014 14.666a4.648 4.648 0 002.962-1.06l12.32 8.31 1.492-2.21-12.32-8.31a4.664 4.664 0 000-2.792l12.32-8.31-1.492-2.21-12.32 8.31z" clip-rule="evenodd"/><path fill="#DF2239" fill-rule="evenodd" d="M14 8.667l-.943.276.276-.943-.276-.943.943.276.943-.276-.276.943.276.943L14 8.667zM12 12l-.943.276.276-.943-.276-.943.943.277.943-.277-.276.943.276.943L12 12zm3.057.276L16 12l.943.276-.276-.943.276-.943-.943.277-.943-.277.276.943-.276.943z" clip-rule="evenodd"/></g><defs><clipPath id="clip0"><path fill="#fff" d="M0 0h28v20H0z"/></clipPath></defs></svg>