<svg xmlns="http://www.w3.org/2000/svg" fill="none" aria-hidden="true" viewBox="0 0 28 20"><g clip-path="url(#clip0)"><path fill="#fff" d="M0 0h28v20H0V0z"/><path fill="#29C53F" fill-rule="evenodd" d="M28 0v10H0V0h28z" clip-rule="evenodd"/><path fill="#579DED" fill-rule="evenodd" d="M28 10v10.667H0V10h28z" clip-rule="evenodd"/><path fill="#F42D56" fill-rule="evenodd" d="M0 20l28-10L0 0v20z" clip-rule="evenodd"/><path stroke="#FFC63C" stroke-width="1.333" d="M12.667 10a4 4 0 11-8 0 4 4 0 018 0v0z"/><path fill="#FFC63C" fill-rule="evenodd" d="M8 9.333A.667.667 0 108.052 8 .667.667 0 008 9.333z" clip-rule="evenodd"/><path fill="#FFC63C" fill-rule="evenodd" d="M9.333 10a.667.667 0 10.052-1.332A.667.667 0 009.333 10zm-.666-1.333a.667.667 0 100-1.334.667.667 0 000 1.334zm-.667 2a.667.667 0 100-1.334.667.667 0 000 1.334z" clip-rule="evenodd"/><path fill="#FFC63C" fill-rule="evenodd" d="M9.333 11.333A.667.667 0 109.385 10a.667.667 0 00-.052 1.333zM8 12a.667.667 0 10.052-1.333A.667.667 0 008 12z" clip-rule="evenodd"/><path fill="#FFC63C" fill-rule="evenodd" d="M9.333 12.667a.667.667 0 100-1.334.667.667 0 000 1.334z" clip-rule="evenodd"/></g><defs><clipPath id="clip0"><path fill="#fff" d="M0 0h28v20H0z"/></clipPath></defs></svg>