<svg xmlns="http://www.w3.org/2000/svg" fill="none" aria-hidden="true" viewBox="0 0 28 20"><path fill="#fff" d="M0 0h28v20H0V0z"/><path fill="#E34F4F" fill-rule="evenodd" d="M0 20h28v-6.667H0V20zm9.333-6.667h8V8h-8v5.333z" clip-rule="evenodd"/><path fill="#181A1A" fill-rule="evenodd" d="M10.667 13.333H12V12h-1.333v1.333zm4 0H16V12h-1.333v1.333zM9.333 8h1.334V6.667H9.333V8zm4 0h1.334V6.667h-1.334V8zM12 8h1.333V6.667H12V8zm4 0h1.333V6.667H16V8z" clip-rule="evenodd"/><path fill="#E34F4F" fill-rule="evenodd" d="M9.333 6.667h1.334V5.333H9.333v1.334zm4 0h1.334V5.333h-1.334v1.334zm-1.333 0h1.333V5.333H12v1.334zm4 0h1.333V5.333H16v1.334z" clip-rule="evenodd"/></svg>