<svg xmlns="http://www.w3.org/2000/svg" fill="none" aria-hidden="true" viewBox="0 0 28 20"><path fill="#fff" d="M0 0h28v20H0V0z"/><path fill="#0884E6" fill-rule="evenodd" d="M0 6.667h28V0H0v6.667zM0 20h28v-6.667H0V20z" clip-rule="evenodd"/><path fill="#0E88E9" fill-rule="evenodd" d="M14 10.667l-.943.276.276-.943-.276-.943.943.276.943-.276-.276.943.276.943-.943-.276zm5.333-1.334l-.942.276.276-.942-.277-.943.943.276.943-.276-.276.943.276.942-.943-.276zm0 2.667l-.942.276.276-.943-.277-.943.943.277.943-.277-.276.943.276.943-.943-.276zM8.667 12l-.943.276.276-.943-.276-.943.943.277.942-.277-.276.943.276.943L8.667 12zm0-2.667l-.943.276L8 8.667l-.276-.943.943.276.942-.276-.276.943.276.942-.942-.276z" clip-rule="evenodd"/></svg>