<svg xmlns="http://www.w3.org/2000/svg" fill="none" aria-hidden="true" viewBox="0 0 28 20"><path fill="#fff" d="M0 0h28v20H0V0z"/><path fill="#112EBC" fill-rule="evenodd" d="M0 9.333h28V0H0v9.333z" clip-rule="evenodd"/><path fill="#E3264A" fill-rule="evenodd" d="M0 20h28V9.333H0V20z" clip-rule="evenodd"/><path fill="url(#paint0_linear)" d="M17.999 6.667H10a.667.667 0 00-.667.667V14c0 .368.299.667.667.667h7.999a.667.667 0 00.667-.667V7.334a.667.667 0 00-.667-.667z"/><mask id="a" width="10" height="9" x="9" y="6" maskUnits="userSpaceOnUse"><path fill="#fff" d="M17.999 6.667H10a.667.667 0 00-.667.667V14c0 .368.299.667.667.667h7.999a.667.667 0 00.667-.667V7.334a.667.667 0 00-.667-.667z"/></mask><g mask="url(#a)"><path fill="#AABCAE" stroke="#366C14" stroke-width=".667" d="M9.667 14.333v-.794l1.919-.96a2.334 2.334 0 011.043-.246h2.742c.362 0 .719.085 1.043.247l1.92.96v.793H9.666h.001z"/><path fill="#D4B872" fill-rule="evenodd" d="M14 12a2 2 0 100-4 2 2 0 000 4z" clip-rule="evenodd"/><path fill="#C28321" stroke="#0D3488" stroke-width=".667" d="M11.542 11.127l1.833 1.467a1 1 0 001.25 0l1.834-1.467a.332.332 0 01.541.26v1.28c0 .184-.15.333-.333.333h-5.334a.333.333 0 01-.333-.333v-1.28c0-.28.323-.435.542-.26z"/><path fill="#216C30" fill-rule="evenodd" d="M12.569 8.569A.333.333 0 0112.805 8h2.39c.297 0 .446.359.236.569l-1.195 1.195a.333.333 0 01-.472 0L12.57 8.57l-.001-.001z" clip-rule="evenodd"/></g><defs><linearGradient id="paint0_linear" x1="9.333" x2="9.333" y1="6.667" y2="14.667" gradientUnits="userSpaceOnUse"><stop stop-color="#fff"/><stop offset="1" stop-color="#F0F0F0"/></linearGradient></defs></svg>