<svg xmlns="http://www.w3.org/2000/svg" fill="none" aria-hidden="true" viewBox="0 0 28 20"><path fill="#D01129" d="M0 0h28v20H0V0z"/><path fill="#FFF101" fill-rule="evenodd" d="M13.888 10.04c.661 0 1.197-.562 1.197-1.256 0-.693-.536-1.256-1.197-1.256-.66 0-1.197.563-1.197 1.256 0 .694.536 1.257 1.197 1.257" clip-rule="evenodd"/><path fill="#fff" fill-rule="evenodd" d="M12.797 8.28c.34-.114.779.018 1.068.31.307-.06.615-.464.71-.825-.104-1.198-.85-2.105-1.077-2.728-.072-.197-.405-.506-.751-.362-.284.118-.428.026-1.384.527-.517.27-.952.548-1.18.597-.23.048-.472.091-.655-.06-.253-.207-.535-.265-.702-.42-.204-.192-.335-.337-.473-.396-.138-.058-.372.072-.273.382.222.701.747.815.973 1.47.106.31.257.543.595.308.338-.235.816-.547 1.63-.58.547-.022 1.112-.233 1.372-.58-.003.3.098.546.072.936-.027.39-.023.875.075 1.42" clip-rule="evenodd"/><path fill="#FFF101" fill-rule="evenodd" d="M13.438 8.312c-.1-.59.082-.675-.136-1.366-.13-.415-.214-.936-.216-1.179l-.088.027c.003.242.086.763.217 1.179.21.668.047.77.127 1.31a.978.978 0 01.096.03" clip-rule="evenodd"/><path fill="#FFF101" fill-rule="evenodd" d="M12.924 8.247c0-.075-.004-.153-.015-.22.153-.039.416.11.41 0-.001-.07 0-.14.002-.21-.003.095-.369-.064-.432-.023-.068-.343.016-.696-.037-.912.122-.035.346.042.319-.059-.016-.051-.046-.18-.065-.26.019.084-.16.015-.22.063a5.632 5.632 0 01-.076-.7l-.16-.002c-.003.3.098.545.072.935-.027.39-.023.875.075 1.42a1.88 1.88 0 01.127-.032zm-.404-2.739c-.24.362-.81.611-1.336.667-.48.044-.941.213-1.336.49-.026-.049-.074-.076-.115-.108-.446-.347-.263-.817-.094-.75-.064-.026-.1-.06-.136-.087-.059-.046-.229.13-.207.409.009.119.106.294.184.387-.144-.027-.213-.066-.297-.173a.359.359 0 01.159-.053c-.017-.043-.04-.09-.046-.161a.407.407 0 00-.23.078c-.178-.185-.36-.333-.466-.552-.169-.35.003-.57.226-.337-.204-.191-.335-.336-.473-.395-.138-.058-.372.072-.273.382.222.701.747.815.973 1.47.106.31.263.551.595.308l.094-.068c.105-.064.272.043.254.277.086-.215.031-.28-.041-.409-.054.03-.05-.146-.083-.169.19-.123.42-.248.712-.336.01.105.038.216.13.2.05-.012.1-.022.152-.031-.092.016-.118-.106-.129-.21.138-.034.29-.059.454-.073.19-.017.387-.057.572-.12.028.1.085.27.18.237a2.04 2.04 0 00.242-.098c-.132.066-.184-.122-.216-.222.241-.11.446-.26.569-.438l-.019-.115" clip-rule="evenodd"/><path fill="#FFF101" fill-rule="evenodd" d="M13.573 5.688c.116-.095.216-.14.116-.34-.164-.328-.062-.33-.421-.538-.366-.212-.32-.229-.804-.05-.12.045-.093.09-.072.271.045.39.13.705.208 1.027.305-.042.773-.207.973-.37z" clip-rule="evenodd"/><path fill="#FFF101" fill-rule="evenodd" d="M12.438 5.599c-.064-.192-.047-.166.184-.107.076-.253.18-.467.24-.671.065-.23.085-.27.18-.215.125.072.26.148.348.193.154.08.132.107.058.233-.073.126-.314.382-.462.648.195.145.258.158.12.22-.156.07-.415.156-.524.176-.02-.126-.084-.295-.144-.477zM10.14 7.402l-.014.198-.14-.132-.154.11.01-.197-.178-.056.152-.115-.067-.183.179.055.094-.17.072.181.185-.03-.09.173.135.134-.183.032" clip-rule="evenodd"/><path fill="#fff" fill-rule="evenodd" d="M14.017 10.029c-.263-.252-.374-.717-.278-1.126-.202-.25-.69-.328-1.035-.234-.936.694-1.311 1.827-1.712 2.345-.126.163-.215.62.077.863.24.2.236.376 1.126.995.482.335.929.591 1.083.775.155.184.31.383.279.625-.045.333.049.619.003.848-.056.282-.11.473-.09.628.02.155.246.302.453.057.466-.553.298-1.086.726-1.619.202-.252.318-.505-.044-.695-.363-.19-.86-.469-1.293-1.193-.292-.486-.75-.894-1.164-.957.248-.148.4-.362.735-.533a5.24 5.24 0 001.134-.779z" clip-rule="evenodd"/><path fill="#FFF101" fill-rule="evenodd" d="M13.724 9.43c-.436.386-.598.263-1.06.806-.277.327-.665.664-.864.787l.066.066c.2-.123.587-.46.865-.787.446-.525.611-.427 1.016-.77a1.147 1.147 0 01-.023-.102z" clip-rule="evenodd"/><path fill="#FFF101" fill-rule="evenodd" d="M13.928 9.93c-.063.037-.125.08-.175.124-.109-.12-.117-.434-.205-.372-.028.02-.123.073-.174.101.08-.044.131.368.197.405-.25.233-.583.334-.733.49-.09-.094-.14-.336-.209-.26-.034.04-.125.13-.181.188.06-.06.091.138.16.169-.137.121-.405.34-.539.42l.079.146c.248-.148.4-.362.735-.533.335-.17.733-.417 1.134-.779a2.031 2.031 0 01-.09-.099h.001zm-2.058 1.737c.418.037.909.43 1.218.882.361.528.746.797 1.073.968-.028.05-.026.105-.032.16-.063.579-.543.647-.572.46.01.071 0 .122-.004.167-.009.077.222.143.441-.016.094-.067.19-.243.227-.361.05.144.052.226.006.357a.38.38 0 01-.123-.118c-.027.037-.054.082-.11.122.035.065.1.13.18.17-.065.254-.095.494-.223.699-.204.329-.472.283-.39-.037-.057.282-.11.473-.09.628.02.155.245.302.452.057.466-.553.298-1.086.726-1.619.202-.252.323-.515-.044-.695l-.103-.051c-.106-.064-.1-.27.1-.37-.219.03-.246.111-.315.242.051.033-.096.117-.099.159a2.814 2.814 0 01-.633-.479c.082-.062.16-.143.1-.218a2.97 2.97 0 01-.101-.123c.06.076-.028.16-.11.222a3.313 3.313 0 01-.286-.376 2.633 2.633 0 00-.385-.46c.069-.075.18-.212.105-.281a2.15 2.15 0 00-.201-.172c.12.087-.01.228-.075.307-.212-.164-.438-.276-.647-.298l-.085.074z" clip-rule="evenodd"/><path fill="#FFF101" fill-rule="evenodd" d="M11.322 10.698c-.136-.059-.07-.138-.184.054-.189.313-.225.24-.218.672.008.438.09.368.48.719.299-.236.657-.593.883-.824-.187-.256-.726-.52-.961-.621z" clip-rule="evenodd"/><path fill="#FFF101" fill-rule="evenodd" d="M11.986 11.696c-.126.154-.114.126-.181-.114-.246.057-.436.124-.634.173-.222.055-.266.057-.268-.059a9.762 9.762 0 00-.014-.412c-.012-.18.022-.173.163-.169.14.004.433.04.727.042.02-.25 0-.314.122-.218.135.106.335.298.406.387-.094.08-.201.224-.321.37zm2.636 1.187l.17-.085-.04.192.17.086-.168.089.042.19-.17-.08-.118.152-.044-.19-.187-.001.113-.156-.116-.153.187-.004.042-.19.119.15z" clip-rule="evenodd"/><path fill="#fff" fill-rule="evenodd" d="M14.85 8.045c-.075.365-.404.699-.79.816-.104.309.075.791.325 1.058 1.04.504 2.162.279 2.79.384.198.033.62-.115.674-.501.044-.318.192-.403.257-1.522.035-.605.023-1.14.098-1.372.075-.233.16-.475.376-.566.297-.125.486-.354.699-.427.26-.09.444-.137.561-.233.118-.096.127-.374-.178-.44-.69-.147-1.046.273-1.699.15-.308-.058-.576-.037-.551.388.024.425.043 1.015-.337 1.772-.256.508-.364 1.128-.208 1.537-.246-.152-.499-.184-.807-.403a5.161 5.161 0 00-1.21-.64" clip-rule="evenodd"/><path fill="#FFF101" fill-rule="evenodd" d="M14.503 8.611c.537.204.515.412 1.194.56.41.089.88.273 1.081.393l.022-.093c-.2-.12-.673-.304-1.08-.393-.657-.143-.66-.342-1.144-.54a.988.988 0 01-.073.073z" clip-rule="evenodd"/><path fill="#FFF101" fill-rule="evenodd" d="M14.813 8.176c.062.038.129.073.19.097-.045.159-.3.323-.204.372.058.034.114.07.17.108-.076-.05.238-.304.236-.382.317.11.566.363.77.422-.032.129-.207.294-.11.32.05.011.17.048.246.07-.079-.024.068-.152.059-.23.169.064.483.199.615.28l.082-.144c-.246-.152-.499-.184-.807-.403a5.161 5.161 0 00-1.21-.64c-.01.044-.023.087-.037.13zm2.462 1.002c-.179-.398-.1-1.041.118-1.548.204-.458.294-.96.263-1.46.054.001.1-.029.147-.05.51-.232.806.17.666.29.053-.046.1-.062.14-.08.067-.031.007-.274-.234-.394-.103-.051-.296-.05-.412-.025.095-.117.161-.16.292-.184a.403.403 0 01-.036.17c.044.006.094.009.156.04a.46.46 0 00.05-.25c.242-.067.455-.16.688-.146.373.021.47.288.166.374.26-.09.444-.137.561-.233.118-.096.127-.374-.178-.44-.69-.147-1.046.273-1.699.15-.308-.058-.586-.036-.551.388l.009.119c0 .128-.172.226-.356.093.134.185.216.168.358.167.002-.064.145.028.18.01.008.233-.005.505-.078.814-.092-.043-.197-.073-.23.018a2.517 2.517 0 01-.05.154c.033-.092.146-.054.238-.012-.045.154-.1.304-.167.45-.082.18-.147.38-.187.58-.097-.026-.265-.059-.285.044a2.348 2.348 0 00-.041.269c.011-.153.193-.106.29-.085-.029.274-.008.536.078.737l.104.04z" clip-rule="evenodd"/><path fill="#FFF101" fill-rule="evenodd" d="M16.559 10.01c.02.153.007.266.222.275.353.014.324.06.675-.162.358-.227.368-.182.462-.712.023-.13-.027-.128-.187-.2-.345-.155-.646-.144-.95-.234-.118.297-.257.769-.222 1.032v.001z" clip-rule="evenodd"/><path fill="#FFF101" fill-rule="evenodd" d="M17.241 9.058c.19.038.16.04-.004.222.171.195.302.332.441.488.156.174.18.213.086.273a8.76 8.76 0 00-.333.219c-.142.1-.154.066-.22-.064-.068-.13-.166-.412-.31-.68-.218.106-.26.156-.242-.001.02-.176.078-.455.116-.564.114.045.286.071.466.107zm-.339-2.99l-.155-.113.178-.06-.014-.196.157.108.137-.134.018.196.184.03-.134.136.092.17-.185-.025-.068.183-.097-.169-.178.057.065-.183z" clip-rule="evenodd"/><path fill="#000" fill-rule="evenodd" d="M13.86 8.595c-.29-.292-.727-.42-1.06-.308l-.01-.006a5.76 5.76 0 01-.076-1.423c.012-.18.002-.31-.033-.545a5.13 5.13 0 01-.022-.15 1.77 1.77 0 01-.016-.218c-.257.325-.799.543-1.365.566-.669.027-1.087.204-1.626.578-.3.208-.47.084-.606-.31-.09-.263-.2-.414-.463-.692l-.02-.022c-.276-.29-.396-.46-.49-.757-.088-.277.102-.469.283-.392a1 1 0 01.234.167l.168.16.1.094a.122.122 0 00-.042-.018l-.068-.065c-.062-.059-.14-.134-.168-.159a.99.99 0 00-.23-.164c-.169-.072-.347.108-.263.372.093.294.212.462.486.752l.02.021c.265.28.376.432.466.696.134.388.296.506.585.304.541-.375.962-.553 1.634-.58.572-.023 1.119-.247 1.366-.577l.013.005c0 .074.005.147.016.236l.022.15c.035.236.046.368.034.55-.033.471-.008.945.074 1.41l-.008.002.01.006-.002-.009c.338-.109.776.022 1.06.313.289-.055.604-.436.705-.816-.05-.57-.233-1.085-.564-1.718-.051-.098-.19-.354-.258-.478l-.037-.068a3.632 3.632 0 01-.218-.462c-.095-.26-.45-.48-.741-.358-.069.03-.14.051-.213.065-.39.09-.605.165-1.17.461l-.049.026c-.108.057-.37.202-.534.292-.069.038-.12.067-.135.074-.224.121-.364.185-.465.206-.335.07-.505.068-.66-.06a1.322 1.322 0 00-.206-.14l.005-.005-.003-.01.05.03c.06.034.112.071.162.112.152.125.318.128.649.058.1-.02.239-.084.462-.204l.134-.074c.164-.09.426-.235.535-.293l.048-.025c.567-.297.783-.374 1.173-.463l.092-.023c.04-.011.08-.025.12-.04.3-.126.662.1.76.365.045.125.111.263.216.46l.037.068.259.48c.331.633.516 1.15.566 1.725-.103.388-.423.774-.723.828zM9.305 5.582l.015.01v-.003a.18.18 0 00-.015-.007zm-.053-.01c.018 0 .035.003.053.01a2.697 2.697 0 00-.167-.084v-.003a.323.323 0 00-.036-.015l-.028-.014a1.166 1.166 0 01-.205-.12v-.002a.141.141 0 00-.01-.007l.01.008v.012l-.005.003a.137.137 0 01-.004-.004v-.012l-.008.006H8.85a.575.575 0 01-.03-.026l-.005-.005c-.094-.02-.2.08-.261.24l.01.01.299-.209c.046.036.102.07.18.11-.113-.007-.209.1-.331.372l.011.01.41-.339.118.06h.001zm.047.025a2.372 2.372 0 00-.047-.025c-.13-.003-.253.178-.327.498l.012.007.38-.47-.012-.007.009.003-.003-.012-.006.008-.006-.002zm-.353.445c.083-.334.22-.497.353-.445l.006.003-.359.442zm0 0l-.007.032-.013-.007.02-.025zm.173-.537l.015.008.006-.005-.002-.01-.019-.01-.017-.008a.213.213 0 00-.057-.01l.022.01.03.015c-.128-.042-.225.038-.357.324l-.025.02.011.01.014-.03.379-.314zm.002 0a.281.281 0 00-.024-.01l.016.008.006.002h.002zm0 0l.011.004-.001-.013-.01.008zm-.543.037l.274-.192H8.85c-.088-.057-.205.03-.273.192h.001zm0 0l-.02.014.01.01a.629.629 0 01.01-.024z" clip-rule="evenodd"/><path fill="#000" fill-rule="evenodd" d="M13.417 7.76c-.01.227-.006.348.028.55l-.01.01a1.36 1.36 0 01-.1-.037 2.228 2.228 0 01-.02-.497l.003-.043a1.944 1.944 0 00-.11-.768c-.121-.386-.214-.913-.212-1.189l.097-.019c.002.267.095.792.216 1.177.101.322.122.503.11.773l-.002.044V7.76zm.023.545l-.01.009-.001-.013.011.004zm-.097-.03a.78.78 0 01.086.026c-.03-.179-.04-.36-.026-.541l.002-.044a1.943 1.943 0 00-.11-.767c-.121-.386-.214-.914-.207-1.175l-.082.02c.002.266.095.792.216 1.177.101.322.122.503.11.773l-.002.043a2.56 2.56 0 00.013.488z" clip-rule="evenodd"/><path fill="#000" fill-rule="evenodd" d="M11.719 5.01c-.082.037-.081.168-.015.37.052.163.146.366.258.575l.014-.006-.248-.933-.01-.005.001-.001zm1.197 3.016c.01.074.015.148.015.222l-.006.007-.025.005a.917.917 0 01-.11.02 5.767 5.767 0 01-.076-1.422c.012-.18.002-.31-.033-.545l-.022-.151a1.055 1.055 0 01-.009-.246l.167.01c0 .138.036.456.075.687.02-.011.05-.014.095-.013h.019c.042.001.059 0 .074-.003.017-.005.023-.014.019-.032l.014-.003.026.107.002.009c.017.072.029.117.037.143.009.034-.006.053-.041.06a.469.469 0 01-.119.002 2.126 2.126 0 00-.16-.002c.022.086.024.165.015.387-.012.172-.005.345.021.515.028-.01.076-.002.2.027l.008.002c.05.013.1.023.15.028.041.003.061-.005.062-.023v.029c-.014.008-.035.01-.063.009a.975.975 0 01-.152-.028l-.008-.002c-.13-.03-.178-.038-.198-.025l-.011-.005a2.386 2.386 0 01-.023-.528c.011-.13.008-.262-.01-.392a.406.406 0 01.126-.01l.044.002a.463.463 0 00.115 0c.027-.006.036-.018.03-.041a3.144 3.144 0 01-.037-.145l-.002-.008-.018-.075c.007-.009.01-.02.006-.036l-.014.003.008.033a.045.045 0 01-.023.013.26.26 0 01-.079.004h-.018c-.05-.001-.079.003-.096.017l-.012-.005a4.368 4.368 0 01-.07-.694l-.152-.01c0 .075.005.148.016.237l.022.15c.035.236.046.369.034.55-.032.463-.012.932.066 1.412.04-.011.08-.021.121-.03v.005l.006-.007-.006.001c0-.076-.004-.15-.01-.222a.389.389 0 01.155.003l.072.015c.092.02.106.023.133.024.033 0 .046-.01.045-.034-.002-.026 0-.096.002-.18a.032.032 0 00.016-.03h-.015.015c-.004.097-.005.18-.004.209.003.035-.019.05-.06.05a.63.63 0 01-.135-.024.704.704 0 00-.214-.026zm-1.2-2.997l-.002-.01.01.006a.093.093 0 00-.007.004h-.001zm.23.862a3.524 3.524 0 01-.229-.516c-.06-.188-.064-.31 0-.346l.228.862h.001zm0 0l.029.056-.014.006-.016-.062h.001zm-.185.257l.005.017c.068-.027.137-.058.206-.095l-.005-.016-.206.094zm0 0c.068-.026.137-.058.205-.094l.006.017-.206.094-.005-.017zm-1.179.229l.004.017.153-.048-.003-.017a2.33 2.33 0 00-.154.048zm0 0l.004.016c.05-.017.1-.032.153-.047l-.003-.017-.154.048z" clip-rule="evenodd"/><path fill="#000" fill-rule="evenodd" d="M11.183 6.167c.557-.058 1.105-.322 1.33-.663l.013.003.018.12a1.31 1.31 0 01-.568.432l.03.089c.043.116.095.166.17.13-.018.01-.037.018-.056.027-.053-.007-.094-.061-.128-.152a.988.988 0 01-.016-.047c-.004-.01-.014-.044-.01-.052.25-.114.449-.265.565-.43l-.016-.097a.781.781 0 00.01-.015l-.013-.003.003.018c-.234.339-.777.597-1.33.655a2.834 2.834 0 00-1.343.487.26.26 0 00-.087-.086.956.956 0 01-.027-.02c-.201-.157-.294-.354-.28-.537.01-.128.073-.223.145-.232a.378.378 0 00.043.02L9.64 5.8a.095.095 0 00-.048-.006 2.308 2.308 0 01-.094-.068c-.07-.055-.214.167-.196.402.008.106.094.278.183.383l-.007.013c-.147-.03-.217-.07-.3-.188a.364.364 0 01.152-.053l.004.01.006-.01h-.01l-.01-.026a.375.375 0 01-.023-.07.177.177 0 01-.003-.05.465.465 0 00-.235.076 3.734 3.734 0 00-.034-.036l-.11-.11a15.127 15.127 0 01-.038-.038 1.344 1.344 0 01-.284-.37c-.08-.166-.09-.317-.033-.396.037-.052.096-.063.163-.032l.024.023.037.035c-.089-.075-.17-.08-.213-.016-.052.073-.043.218.035.379.06.123.14.223.281.366l.148.148c.012.012.024.024.025.034a.372.372 0 01.227-.073c-.018-.244.135-.48.22-.413l.003.002.052.04a.38.38 0 00.079.044l-.006.014c-.08-.032-.163.067-.174.213-.013.178.077.37.275.524a.985.985 0 00.026.02c.052.037.073.057.081.088a2.74 2.74 0 011.339-.492zm-1.846.13a.567.567 0 00-.149.04.4.4 0 00.273.167.99.99 0 01-.124-.206zm-.542-1.02a.319.319 0 00-.071-.046l-.144-.136a.99.99 0 00-.23-.164c-.169-.072-.347.108-.263.372.093.294.212.462.486.752l.02.02c.265.28.376.433.466.697.062.18.128.297.21.358.1.072.221.06.375-.053l.052-.038.042-.03c.117-.072.261.047.267.24a.903.903 0 01-.015.04l.014.003a.44.44 0 000-.043c.04-.112.037-.182 0-.26a.716.716 0 00-.025-.048V6.94c-.006-.01-.025-.044-.02-.05-.02.01-.034.002-.045-.02a.305.305 0 01-.02-.07l-.001-.008c-.01-.046-.016-.065-.025-.071v-.013a2.45 2.45 0 01.723-.33c.014.136.05.205.121.193a.982.982 0 01.102-.022.088.088 0 00.053.005c-.05.01-.1.02-.152.032-.085.014-.124-.063-.13-.2a2.71 2.71 0 00-.7.33c.012.023.02.047.022.073l.002.009a.3.3 0 00.018.065c.008.015.014.019.034.016l.03.054a.52.52 0 01.027.05c.042.09.04.173-.015.312L9.99 7.29c.016-.207-.13-.34-.243-.27l-.04.03h-.002a5.716 5.716 0 00-.052.038c-.158.116-.286.13-.39.054-.087-.063-.154-.183-.216-.365-.09-.262-.2-.413-.463-.691l-.02-.022c-.276-.29-.396-.46-.49-.757-.088-.277.102-.47.283-.392.086.044.164.1.234.167l.168.16.037.035h-.001zm2.07 1.262l.002.015-.002-.015zm0 0c-.072.013-.106-.06-.12-.203.137-.026.287-.05.447-.065a2.45 2.45 0 00.573-.12c.038.168.096.266.18.237.083-.028.164-.06.243-.098l-.006-.014-.005.003.005-.003.006.014-.005.003a.115.115 0 01-.063.012c-.059.025-.12.048-.18.068-.071.025-.125-.068-.17-.231a2.933 2.933 0 01-.58.114c-.16.014-.31.038-.454.073.007.12.03.197.078.22l.05-.01h.001zm-2.07-1.26c.012.01.024.02.036.034l-.01.01.01-.01a7.428 7.428 0 01-.036-.035zm4.951 3.626c-.096.409.017.87.276 1.118v.012a5.226 5.226 0 01-1.135.78c-.118.06-.218.127-.327.214a4.648 4.648 0 00-.173.146 1.81 1.81 0 01-.218.16c.396.072.847.456 1.149.959.357.595.712.887 1.29 1.19.321.168.304.385.046.707-.172.214-.24.387-.34.774-.109.42-.185.607-.386.845-.184.219-.437.142-.464-.06a.881.881 0 01.016-.27c.009-.05.045-.226.063-.313l.01-.048.006-.036c0 .017.002.032.007.046l-.009.042c-.018.086-.054.26-.063.312a.867.867 0 00-.016.264c.026.19.263.262.44.053.199-.236.274-.42.382-.84.1-.388.17-.563.343-.78.253-.314.269-.52-.042-.683-.58-.303-.937-.597-1.296-1.195-.304-.508-.762-.894-1.158-.954l-.003-.014c.075-.044.141-.094.233-.171l.174-.146c.11-.088.211-.156.33-.216a5.2 5.2 0 001.125-.772l.006.006v-.012l-.006.006c-.259-.253-.37-.717-.273-1.121-.189-.234-.662-.33-1.025-.233-.35.26-.641.592-.917 1.017-.076.117-.23.384-.38.645-.156.27-.307.534-.362.612a1.74 1.74 0 01-.05.07c-.168.215-.172.647.075.852a.96.96 0 01.132.13l.042.049.078.088c.053.06.106.115.17.175.165.156.387.333.704.553.16.11.666.445.663.444.224.15.35.248.42.332.226.269.309.425.28.63a1.474 1.474 0 00-.01.257l-.008-.001-.007.007c-.004-.088 0-.177.011-.264.028-.2-.053-.353-.276-.62-.07-.081-.195-.18-.418-.33.003.003-.503-.331-.664-.443a6.089 6.089 0 01-.705-.553 2.784 2.784 0 01-.171-.176l-.078-.09-.041-.047a1.276 1.276 0 00-.131-.13c-.254-.21-.25-.651-.078-.873.017-.022.033-.045.05-.07.055-.077.205-.34.36-.61.15-.26.305-.53.382-.646.277-.426.57-.76.923-1.022.37-.1.849-.002 1.044.244zm-.207 5.648l-.001-.018h-.001c0 .007 0 .012.002.018zm.017.054a.163.163 0 01-.017-.054c.002.053.006.112.012.182l.001.01-.002.003c.016.106.02.213.011.32l-.002.015.002-.015.01-.005.005.002-.002.016v-.01l-.01.005.01.005v.003a.687.687 0 01-.007.038l-.001.007c.03.095.166.143.329.117l.002-.014-.32-.167a1.163 1.163 0 00-.002-.22c.052.107.188.14.474.116l.002-.014-.484-.204-.001-.01a4.788 4.788 0 01-.01-.126zm-.003-.056l.003.056c.064.119.274.14.575.048v-.015l-.579-.111v.016-.01l-.01.008.01.002.001.006zm.544.098c-.317.092-.52.049-.544-.098v-.006l.544.104zm0 0l.03-.01v.016l-.03-.006zm-.529.112l-.001-.018-.007-.002-.008.005.004.043c.004.02.01.04.019.057l-.005-.06c.03.137.145.185.446.163l.03.012.001-.015-.03.003-.449-.188zm-.002-.002l.004.027-.002-.025-.002-.002zm0 0l-.002-.012-.01.008.012.004zm.303.476l-.295-.154v.003c-.002.107.128.17.295.15zm0 0l.022.01.002-.014a.4.4 0 01-.024.004z" clip-rule="evenodd"/><path fill="#000" fill-rule="evenodd" d="M13.262 9.734a2.04 2.04 0 00.457-.31l.012.005.008.043.013.066a2.03 2.03 0 01-.418.276l-.041.022c-.21.115-.35.228-.557.471-.258.304-.646.652-.875.787l-.064-.078c.218-.135.606-.482.862-.785.208-.244.35-.359.562-.475l.04-.022h.001zm.454-.303l.012.005-.01.008a.575.575 0 01-.002-.013zm.003.013c-.15.132-.24.19-.45.303l-.042.023c-.209.115-.35.228-.557.471-.257.304-.646.652-.864.776l.057.065c.218-.135.605-.482.862-.785.152-.195.344-.357.561-.475l.041-.022a2.32 2.32 0 00.413-.265.993.993 0 01-.021-.09v-.001zm-1.122 2.453l.009-.012c.06.046.118.095.171.146l-.009.012-.171-.146zm0 0c.06.046.117.095.17.146l.01-.012-.17-.146-.01.012zm.964 1.11v.001l.011-.012-.01.012h-.001v-.001zm-.121-.127l.12.127a3.127 3.127 0 01-.12-.127zm.01-.012l-.01.012.01-.012zm.001 0l.121.128a3.194 3.194 0 01-.12-.127l-.001-.001z" clip-rule="evenodd"/><path fill="#000" fill-rule="evenodd" d="M11.875 11.673l-.004-.013a.05.05 0 01.017.002l-.013.011zm.85-.042c.013.03.01.063-.004.1a.445.445 0 01-.124.166c-.22-.17-.443-.275-.637-.298l-.072.063c.397.043.881.408 1.206.882.313.458.654.748 1.073.977-.018.031-.023.059-.028.123v.002l-.003.032c-.029.261-.145.444-.303.523-.11.055-.22.045-.264-.016a.443.443 0 00-.005-.05l-.014.003c.002.018.01.034.019.047a.64.64 0 01-.005.088l-.004.032c-.01.091.245.11.43-.023.083-.06.182-.224.224-.358h.014c.05.148.052.232-.005.367a.381.381 0 01-.12-.112l.007-.008h-.012a.152.152 0 00.006.008l-.003.003a1.464 1.464 0 01-.074.09.064.064 0 01-.027.013l.004.005a.48.48 0 00.176.17 6.065 6.065 0 00-.045.193c-.058.256-.097.378-.178.508-.096.156-.216.24-.31.228-.061-.007-.1-.056-.107-.133l.017-.085c-.018.119.019.194.092.203.087.01.202-.07.296-.221.08-.128.118-.25.176-.504.011-.062.028-.124.05-.183a.393.393 0 01-.175-.17c-.192.138-.462.117-.45.007l.003-.032a.456.456 0 000-.133l.015-.002c.014.088.137.115.263.051.153-.076.266-.254.294-.511l.003-.032v-.002c.006-.066.011-.095.033-.118a2.872 2.872 0 01-1.075-.971c-.327-.478-.818-.844-1.212-.878l-.004-.014.09-.075c.203.02.429.127.64.3l.045-.054a.426.426 0 00.066-.106c.022-.055.014-.099-.03-.133l.049.038h-.001zm.856 1.067c.005.054-.046.113-.142.18a3.333 3.333 0 01-.287-.377 3.185 3.185 0 00-.385-.47c.113-.122.163-.217.106-.27-.05-.048-.1-.091-.147-.13a.124.124 0 00-.041-.05c.064.048.13.104.198.169.066.062.014.163-.105.281.143.136.275.295.386.462.09.138.186.263.276.374.11-.085.154-.152.108-.21l.033.04v.001zm-.022-.052l-.01.01.01-.01zm.625.813a2.778 2.778 0 01-.623-.472c.11-.074.155-.148.1-.218a2.995 2.995 0 01-.102-.123c.013.017.02.034.022.052l.069.081c.047.06.007.126-.099.207.195.21.4.36.634.492l.01-.007c.002-.011.014-.025.053-.063l.007-.006a.25.25 0 00.043-.05c.01-.019.01-.036-.008-.047.005.005.027-.034.036-.051l.002-.005c.055-.1.108-.143.235-.166-.156.102-.182.292-.065.363.017.008.03.014.045.023l.059.029c.17.083.24.187.23.313-.008.106-.072.224-.189.37-.174.216-.243.391-.343.78-.108.418-.183.603-.383.84-.176.208-.413.136-.439-.054a.874.874 0 01.016-.264l.046-.227a.354.354 0 01.003-.089c.005-.025.01-.043.01-.048l.014.004-.014-.005a.884.884 0 00-.09.63c.028.204.281.28.465.063.201-.239.277-.425.386-.846.1-.387.168-.56.34-.774.12-.148.184-.269.193-.379.01-.133-.064-.242-.24-.328a3.395 3.395 0 00-.103-.051c-.113-.07-.077-.268.102-.357l-.004-.014c-.161.022-.224.066-.286.18l-.03.054-.006.012c.012.016.013.024.005.037a.237.237 0 01-.04.046l-.007.006c-.035.033-.05.049-.054.063v-.001zm.38-.376a.371.371 0 01.036-.02l.004.014a.897.897 0 00-.04.006zm-1.88-1.502l-.003-.003-.008.012.008-.012.004.003h-.001zm1.429 2.585c.03.044.073.087.107.115a.446.446 0 00.001-.331c-.025.072-.065.15-.108.216z" clip-rule="evenodd"/><path fill="#000" fill-rule="evenodd" d="M14.624 12.873l-.115-.146-.013.004-.042.19-.18-.002-.006.013.116.153-.113.146.006.012.187.002.037.184.013.003.117-.153.162.083.01-.008-.042-.19.164-.081v-.014l-.17-.086.044-.183-.01-.009-.165.082zm.158-.061l-.157.078-.009-.002-.11-.14.004-.014-.012.003.009.012-.046.181-.173.004-.009-.012-.005.012h.014l.108.15-.105.145-.014-.001.006.012.008-.011.18.006.04.176-.009.011.013.003-.003-.014.116-.144.158.075.003.015.01-.008-.013-.007-.036-.184.155-.082.013.007v-.014l-.013.007-.16-.088.037-.176zm0 0l.014-.007-.01-.008-.004.015zm-.723-3.958c.385-.118.71-.451.784-.81l.01-.006a5.1 5.1 0 011.21.642c.153.108.244.152.511.26.127.051.202.086.279.131-.14-.395-.049-.997.215-1.523.313-.622.376-1.09.336-1.768-.021-.376.166-.47.56-.395.258.048.442.024.789-.072l.027-.008c.393-.109.588-.133.883-.07.272.058.336.327.182.453a.829.829 0 01-.25.127l-.23.078-.084.029-.012.004a.135.135 0 00.03-.027l.062-.02.23-.078a.817.817 0 00.245-.125c.144-.118.084-.37-.175-.426-.293-.063-.486-.039-.878.07l-.027.008c-.348.096-.534.12-.794.072-.387-.073-.564.016-.543.38.04.68-.024 1.15-.338 1.775-.267.532-.356 1.14-.207 1.531l-.01.01a1.793 1.793 0 00-.295-.142c-.268-.109-.36-.152-.513-.261a5.12 5.12 0 00-1.2-.638l.001-.008-.01.005.009.003c-.08.362-.406.695-.789.809-.098.289.058.766.321 1.048.142.069.29.126.443.173.473.143.86.174 1.63.176.396.001.55.007.715.034.261.044.62-.168.665-.495.008-.054.019-.103.034-.16l.049-.162c.02-.07.04-.14.055-.21a6.16 6.16 0 00.12-.989c.01-.17.012-.238.025-.602.016-.456.031-.642.073-.772.11-.34.197-.492.38-.57.076-.032.148-.071.217-.117l.003.007.01.003c-.078.05-.148.09-.224.121-.179.076-.264.225-.372.561-.041.128-.056.313-.072.768-.006.2-.014.401-.026.602a6.186 6.186 0 01-.12.992c-.016.07-.034.14-.055.21a12.86 12.86 0 00-.049.162 1.197 1.197 0 00-.033.159c-.047.335-.414.552-.683.507-.163-.027-.317-.033-.712-.034-.77-.001-1.16-.033-1.634-.177a3.005 3.005 0 01-.447-.174c-.269-.288-.427-.771-.321-1.071zm4.762-2.636l-.015.01h.002a.192.192 0 00.013-.01zm.035-.043a.16.16 0 01-.035.043 2.69 2.69 0 00.153-.11l.003.002a.343.343 0 00.03-.026l.03-.022a1.496 1.496 0 01.2-.123l.003.002c.01-.004.02-.01.029-.015a.587.587 0 00-.032.013l-.008-.005-.001-.007a.925.925 0 01.016-.007v.002a.141.141 0 01-.01.005l.011.006v-.011a.602.602 0 01.032-.014l.022-.008c.065-.078.031-.22-.082-.353l-.015.005.026.375c-.064.033-.125.07-.183.112.061-.102.021-.242-.142-.489l-.013.005.074.542-.076.056-.032.022zm-.044.03a.42.42 0 00.044-.03c.067-.117-.02-.319-.247-.547l-.012.008.197.582.013-.009-.008.007.012.003-.004-.01.005-.003v-.001zm-.19-.543c.233.243.3.449.19.544l-.005.003-.186-.547h.001zm0 0l-.023-.023.012-.008.01.031h.001zm.355.425l-.013.01.001.008.009.004.016-.012.017-.013a.23.23 0 00.038-.046l-.016.011-.031.024c.098-.095.08-.225-.09-.487l-.004-.033-.013.006.018.027.068.501zm0 .003a.297.297 0 00.02-.017l-.015.011-.005.003v.003zm0 0l-.009.008.012.005-.002-.013h-.001zm.243-.513l.024.343a.647.647 0 01.014-.006c.09-.057.071-.2-.038-.337zm0 0l-.002-.026-.015.006a.63.63 0 01.017.02z" clip-rule="evenodd"/><path fill="#000" fill-rule="evenodd" d="M14.61 8.663a2.158 2.158 0 00-.11-.045l-.002-.013c.01-.008.021-.02.034-.03a1.6 1.6 0 01.046-.044l.056.024c.14.062.203.1.39.225.223.15.377.221.697.29.379.083.86.262 1.086.403l-.032.097c-.221-.13-.701-.31-1.08-.392a1.736 1.736 0 01-.702-.293 2.05 2.05 0 00-.383-.222zm-.102-.046l-.003-.013.012.005a.583.583 0 01-.01.008h.001zm.073-.073a.88.88 0 01-.064.065c.173.066.336.155.485.264.223.15.378.22.697.29.38.083.86.262 1.072.399l.025-.085c-.22-.13-.7-.309-1.078-.391a1.736 1.736 0 01-.703-.293 2.045 2.045 0 00-.387-.224l-.003-.001c-.017-.008-.034-.015-.044-.024z" clip-rule="evenodd"/><path fill="#000" fill-rule="evenodd" d="M17.492 7.146c.018-.057.035-.11.049-.161l-.017-.004-.048.16.016.005zm-.016-.005l.016.005.048-.16-.016-.005c-.014.051-.03.104-.048.16zM15 8.28a1.214 1.214 0 01-.19-.098l-.004-.009.009-.025a.906.906 0 01.038-.11c.43.159.837.375 1.21.642.153.108.244.152.51.26.138.055.215.091.301.153l-.092.147a4.79 4.79 0 00-.605-.276c0 .021-.01.046-.028.079l-.014.024a.316.316 0 00-.037.074c-.006.02-.002.03.015.035l-.004.015.004-.015-.03-.01a.053.053 0 010-.03.333.333 0 01.04-.077.59.59 0 00.014-.024c.02-.036.028-.061.025-.081l.01-.008c.21.08.5.21.607.284l.084-.134a1.795 1.795 0 00-.294-.142c-.268-.108-.36-.152-.513-.261a5.483 5.483 0 00-1.199-.646c-.01.042-.022.084-.035.125l-.005-.003.003.01.002-.007c.063.039.127.072.188.103a.58.58 0 01-.11.178l-.027.03-.03.035a.53.53 0 00-.042.055c-.022.035-.022.054 0 .065.023.012.083.05.149.093 0 .012.005.021.015.028l.008-.013-.008.013a3.256 3.256 0 00-.17-.107c-.032-.017-.032-.046-.006-.087a.555.555 0 01.043-.057l.03-.036.026-.03a.568.568 0 00.1-.15c.004-.008.006-.014.012-.012zm-.027.466l-.023-.015a.13.13 0 01.022-.06.983.983 0 01.097-.121l.007-.008c.094-.107.122-.145.12-.17l.01-.008c.119.04.228.1.37.192l.006.003c.029.02.169.112.209.136.075.046.133.075.191.1a.377.377 0 01-.035.086c-.01.019-.022.037-.033.055v.001a.935.935 0 00-.064.114c-.013.032-.008.048.016.054.027.006.07.019.145.04l.006.003.05.015.015.004c.004.011.013.02.027.024l-.045-.014-.05-.015-.006-.001a2.876 2.876 0 00-.145-.04c-.035-.01-.042-.036-.027-.075l.005-.014c.007-.016.016-.03.06-.102l.001-.002a1.23 1.23 0 00.048-.086.297.297 0 01.024-.042.789.789 0 01-.19-.092c-.041-.024-.182-.118-.21-.136l-.005-.003a1.704 1.704 0 00-.358-.187c-.005.03-.036.069-.125.17l-.006.008a1.002 1.002 0 00-.095.12c-.023.035-.026.057-.012.066zm3.113-.047c.01-.093-.098-.157-.298-.199a3.291 3.291 0 00-.603-.052l-.002.015.894.242.009-.006zm-.014-.011l.008.002-.01.007v-.009h.002zm-.826-.224c.204.005.395.021.54.051.185.039.287.097.286.173l-.826-.224zm0 0h-.06l.001-.016.059.016zm-.143-.062c.01-.078.023-.154.04-.228l-.016-.003-.04.229.016.002zm0 0l-.017-.002a2.22 2.22 0 01.04-.229l.017.003-.04.228z" clip-rule="evenodd"/><path fill="#000" fill-rule="evenodd" d="M17.4 7.633c-.23.536-.287 1.166-.118 1.542l-.01.01-.107-.044c-.084-.195-.11-.454-.073-.732l-.037-.008a.78.78 0 00-.077-.013c-.101-.011-.16.014-.167.094l.007-.065c.028-.04.084-.053.162-.045a.785.785 0 01.078.014c.009.001.035.007.043.016-.03.285-.005.54.073.729l.087.033a.978.978 0 00.008.017l.009-.01-.017-.007c-.162-.382-.103-1.005.126-1.537a3.2 3.2 0 00.269-1.464c.034 0 .06-.009.112-.035l.003-.001a.91.91 0 01.03-.014c.23-.105.439-.09.583.013.1.072.146.177.119.248a.392.392 0 00-.039.03l.01.011a.104.104 0 00.029-.041.76.76 0 01.093-.047l.01-.004c.08-.037-.032-.279-.234-.38-.092-.046-.276-.053-.407-.025l-.008-.012c.097-.12.166-.163.305-.18 0 .057-.01.113-.032.165l-.01-.001.006.01a.28.28 0 00.004-.009h.005c.042.006.069.01.092.019.015.005.03.013.042.022a.525.525 0 00.055-.252c.044-.012.087-.025.13-.039.171-.053.2-.062.274-.079a.998.998 0 01.285-.029c.177.01.306.077.343.168.025.06.004.12-.055.164l-.04.014-.038.013c.106-.043.15-.114.12-.185-.034-.084-.159-.149-.33-.158a.984.984 0 00-.282.028 3.17 3.17 0 00-.273.08.646.646 0 01-.125.03.42.42 0 01-.053.243c.21.106.328.362.232.407l-.01.004a.413.413 0 00-.129.074l-.009-.012c.066-.056.027-.181-.089-.264-.14-.1-.343-.115-.569-.012a.989.989 0 00-.029.014h-.002c-.055.028-.083.037-.112.029.028.489-.04.947-.263 1.463zm1.927-1.727a.316.316 0 00.074-.04l.19-.065a.817.817 0 00.245-.125c.144-.118.084-.37-.175-.426-.293-.063-.486-.039-.878.07l-.027.008c-.348.096-.534.12-.794.072-.179-.034-.308-.033-.4.012-.109.054-.159.171-.143.367l.002.019c0 .01 0 .019.003.045v.003l.004.053c0 .142-.17.213-.331.122a.91.91 0 01-.026-.034l-.01.011a.378.378 0 00.036.023c.048.06.09.095.135.113a.36.36 0 00.162.018c.014 0 .02 0 .022.006 0-.021.015-.03.038-.03a.26.26 0 01.066.016l.004.002c.048.016.067.02.076.015l.01.007c.01.277-.013.54-.088.822-.12-.056-.194-.058-.22.014-.01.034-.021.069-.033.103a.093.093 0 00-.03.045l.013.006.017-.051c.043-.032.117-.015.22.039a3.464 3.464 0 01-.167.45 3.309 3.309 0 00-.195.584c-.157-.041-.261-.038-.276.039-.014.07-.026.135-.033.198a.13.13 0 00-.022.063v.005l.014.002v-.005.005l-.014-.002 2.531-2.579zm-1.731.272c-.013.002-.033-.003-.077-.018l-.004-.001a.25.25 0 00-.062-.015c-.016-.001-.022.003-.03.022h-.029a.375.375 0 01-.167-.018.408.408 0 01-.167-.151l.01-.011c.162.118.344.052.344-.086a3.124 3.124 0 01-.004-.053v-.003a6.705 6.705 0 00-.006-.063c-.016-.202.037-.326.152-.383.095-.046.227-.047.409-.013.257.048.44.024.788-.072l.027-.008c.393-.109.588-.133.883-.07.272.058.336.327.182.453a.829.829 0 01-.25.127l-.23.078a.34.34 0 01-.038.013.448.448 0 01-.047.016l-.004-.015.005.015.046-.016-1.731.272zm.386-.278a.894.894 0 01.233-.01.64.64 0 00.041-.155.402.402 0 00-.274.165z" clip-rule="evenodd"/></svg>