<svg xmlns="http://www.w3.org/2000/svg" fill="none" aria-hidden="true" viewBox="0 0 28 20"><path fill="#fff" d="M0 0h28v20H0V0z"/><path fill="#38BB56" fill-rule="evenodd" d="M0 6.667h28V0H0v6.667z" clip-rule="evenodd"/><path fill="#DE1B27" fill-rule="evenodd" d="M0 20h28v-6.667H0V20z" clip-rule="evenodd"/><path fill="#fff" fill-opacity=".5" fill-rule="evenodd" d="M1.667 5.333a.333.333 0 00-.334.334v.666c0 .184.15.334.334.334h.666c.184 0 .334-.15.334-.334v-.666a.333.333 0 00-.334-.334h-.666zm2.666 0A.333.333 0 004 5.667v.666c0 .184.15.334.333.334H5c.184 0 .333-.15.333-.334v-.666A.333.333 0 005 5.333h-.667zm2.334.334c0-.184.149-.334.333-.334h.667c.184 0 .333.15.333.334v.666c0 .184-.15.334-.333.334H7a.333.333 0 01-.333-.334v-.666zm3-.334a.333.333 0 00-.334.334v.666c0 .184.15.334.334.334h.666c.184 0 .334-.15.334-.334v-.666a.334.334 0 00-.334-.334h-.666zM12 5.667c0-.184.15-.334.333-.334H13c.184 0 .333.15.333.334v.666a.334.334 0 01-.333.334h-.667A.333.333 0 0112 6.333v-.666zm3-.334a.333.333 0 00-.333.334v.666c0 .184.149.334.333.334h.667c.184 0 .333-.15.333-.334v-.666a.333.333 0 00-.333-.334H15zm2.333.334c0-.184.15-.334.334-.334h.666c.184 0 .334.15.334.334v.666c0 .184-.15.334-.334.334h-.666a.333.333 0 01-.334-.334v-.666zm3-.334a.333.333 0 00-.333.334v.666c0 .184.15.334.333.334H21c.184 0 .333-.15.333-.334v-.666A.333.333 0 0021 5.333h-.667zm2.334.334c0-.184.149-.334.333-.334h.667c.184 0 .333.15.333.334v.666c0 .184-.15.334-.333.334H23a.333.333 0 01-.333-.334v-.666zm3-.334a.333.333 0 00-.334.334v.666c0 .184.15.334.334.334h.666c.184 0 .334-.15.334-.334v-.666a.334.334 0 00-.334-.334h-.666zM1.333 13.667c0-.184.15-.334.334-.334h.666c.184 0 .334.15.334.334v.666c0 .184-.15.334-.334.334h-.666a.334.334 0 01-.334-.334v-.666zm3-.334a.333.333 0 00-.333.334v.666c0 .184.15.334.333.334H5c.184 0 .333-.15.333-.334v-.666A.333.333 0 005 13.333h-.667zm2.334.334c0-.184.149-.334.333-.334h.667c.184 0 .333.15.333.334v.666c0 .184-.15.334-.333.334H7a.333.333 0 01-.333-.334v-.666zm3-.334a.332.332 0 00-.334.334v.666c0 .184.15.334.334.334h.666c.184 0 .334-.15.334-.334v-.666a.334.334 0 00-.334-.334h-.666zm2.333.334c0-.184.15-.334.333-.334H13c.184 0 .333.15.333.334v.666a.334.334 0 01-.333.334h-.667a.333.333 0 01-.333-.334v-.666zm3-.334a.333.333 0 00-.333.334v.666c0 .184.149.334.333.334h.667c.184 0 .333-.15.333-.334v-.666a.333.333 0 00-.333-.334H15zm2.333.334c0-.184.15-.334.334-.334h.666c.184 0 .334.15.334.334v.666c0 .184-.15.334-.334.334h-.666a.334.334 0 01-.334-.334v-.666zm3-.334a.333.333 0 00-.333.334v.666c0 .184.15.334.333.334H21c.184 0 .333-.15.333-.334v-.666a.333.333 0 00-.333-.334h-.667zm2.334.334c0-.184.149-.334.333-.334h.667c.184 0 .333.15.333.334v.666c0 .184-.15.334-.333.334H23a.333.333 0 01-.333-.334v-.666zm3-.334a.333.333 0 00-.334.334v.666c0 .184.15.334.334.334h.666c.184 0 .334-.15.334-.334v-.666a.334.334 0 00-.334-.334h-.666z" clip-rule="evenodd"/><mask id="a" width="6" height="4" x="11" y="8" maskUnits="userSpaceOnUse"><path fill="#fff" fill-rule="evenodd" d="M12.653 8.521a2 2 0 102.717.021" clip-rule="evenodd"/></mask><g fill="#D80915" mask="url(#a)"><path d="M12.204 8.028a2.661 2.661 0 00-.87 1.972h1.333c0-.39.167-.741.435-.986l-.898-.986zM11.335 10A2.667 2.667 0 0014 12.667v-1.334A1.333 1.333 0 0112.667 10h-1.334.002zM14 12.667A2.667 2.667 0 0016.667 10h-1.334c0 .736-.597 1.333-1.333 1.333v1.334zM16.667 10c0-.766-.325-1.458-.842-1.944l-.912.972c.26.244.42.589.42.972h1.334z"/><path d="M14.666 10a.667.667 0 10-1.333 0v1.333a.667.667 0 101.333 0V10z"/></g></svg>