<svg xmlns="http://www.w3.org/2000/svg" fill="none" aria-hidden="true" viewBox="0 0 28 20"><g clip-path="url(#clip0)"><path fill="#fff" d="M0 0h28v20H0V0z"/><path fill="#E3243B" d="M-6.311-2.583l1.53-2.185 40.41 28.296-1.53 2.185-40.41-28.296z"/><path fill="#E3243B" d="M35.63-2.583L34.1-4.767-6.311 23.529l1.53 2.184L35.63-2.583z"/><path fill="#FAEF32" fill-rule="evenodd" d="M15.74 2.667h-2.148l.088-.052-.987-.57 1.276.143-.18-.855.878.713.877-.713-.18.855 1.276-.142-.987.57.088.05-.001.001z" clip-rule="evenodd"/><path fill="#E3243B" fill-rule="evenodd" d="M12.667 5.167V4c0-.736.597-1.333 1.333-1.333h1.333c.737 0 1.334.597 1.334 1.333v1.167c0 1.785-2 2.5-2 2.5s-2-.715-2-2.5z" clip-rule="evenodd"/><mask id="a" width="5" height="6" x="12" y="2" maskUnits="userSpaceOnUse"><path fill="#fff" fill-rule="evenodd" d="M12.667 5.167V4c0-.736.597-1.333 1.333-1.333h1.333c.737 0 1.334.597 1.334 1.333v1.167c0 1.785-2 2.5-2 2.5s-2-.715-2-2.5z" clip-rule="evenodd"/></mask><g fill="#FAEF32" mask="url(#a)"><path d="M14.667 6.667h-.001a.333.333 0 00-.333.333v.001c0 .184.15.333.333.333h.001c.184 0 .333-.15.333-.333V7a.333.333 0 00-.333-.333zm1-1.334h-2.001a.333.333 0 00-.333.333v.001c0 .184.15.333.333.333h2.001c.184 0 .333-.15.333-.333v-.001a.333.333 0 00-.333-.333zm0-1.333h-2.001a.333.333 0 00-.333.333v.001c0 .184.15.333.333.333h2.001c.184 0 .333-.15.333-.333v-.001A.333.333 0 0015.667 4z"/></g></g><defs><clipPath id="clip0"><path fill="#fff" d="M0 0h28v20H0z"/></clipPath></defs></svg>