<svg xmlns="http://www.w3.org/2000/svg" fill="none" aria-hidden="true" viewBox="0 0 28 20"><path fill="#fff" d="M0 0h28v20H0V0z"/><path fill="#FFCB49" fill-rule="evenodd" d="M0 5.333h28V0H0v5.333z" clip-rule="evenodd"/><path fill="#DC1D34" fill-rule="evenodd" d="M0 14.667h28V9.333H0v5.334z" clip-rule="evenodd"/><path fill="#4985D4" fill-rule="evenodd" d="M0 20h28v-5.333H0V20z" clip-rule="evenodd"/><path fill="#4BA343" fill-rule="evenodd" d="M0 20l13.333-10L0 0v20z" clip-rule="evenodd"/><path fill="#fff" fill-rule="evenodd" d="M5.333 14c.346 0 .68-.044 1-.126a4.002 4.002 0 010-7.748 4 4 0 10-1 7.874zM8 7.333a.667.667 0 11-1.333.052A.667.667 0 018 7.333zm-.667 3.334a.667.667 0 100-1.334.667.667 0 000 1.334zm.667 2a.667.667 0 11-1.333.052A.667.667 0 018 12.667z" clip-rule="evenodd"/></svg>