<svg xmlns="http://www.w3.org/2000/svg" fill="none" aria-hidden="true" viewBox="0 0 28 20"><path fill="#fff" d="M0 0h28v20H0V0z"/><path fill="#1461B6" fill-rule="evenodd" d="M0 4h28V0H0v4zm0 16h28v-4H0v4z" clip-rule="evenodd"/><path fill="#fff" fill-rule="evenodd" d="M0 16h28V4H0v12z" clip-rule="evenodd"/><path fill="#F53846" fill-rule="evenodd" d="M0 14.667h28V5.333H0v9.334z" clip-rule="evenodd"/><path fill="#fff" fill-rule="evenodd" d="M13.333 10A3.333 3.333 0 1110 6.667l-.786 2.25-2.384.053 1.898 1.443-.687 2.284L10 11.337l1.96 1.36-.688-2.284L13.17 8.97l-2.384-.052L10 6.667A3.333 3.333 0 0113.333 10z" clip-rule="evenodd"/></svg>