<svg xmlns="http://www.w3.org/2000/svg" fill="none" aria-hidden="true" viewBox="0 0 28 20"><path fill="#fff" d="M0 0h28v20H0V0z"/><path fill="#0C33B8" fill-rule="evenodd" d="M0 6.667h28V0H0v6.667z" clip-rule="evenodd"/><path fill="#1DB158" fill-rule="evenodd" d="M0 20h28v-6.667H0V20z" clip-rule="evenodd"/><path fill="#262626" fill-rule="evenodd" d="M13.333 10l.034-.103c.203-.607 1.063-.607 1.265 0l.035.103 1.181 1.773c.089.132.07.306-.063.395-.293.197-.889.499-1.785.499-.896 0-1.492-.302-1.785-.5-.132-.088-.152-.262-.063-.394L13.333 10z" clip-rule="evenodd"/><path stroke="#262626" stroke-width=".667" d="M15 8.667a1 1 0 11-2 0 1 1 0 012 0v0z"/></svg>