<svg xmlns="http://www.w3.org/2000/svg" fill="none" aria-hidden="true" viewBox="0 0 28 20"><path fill="#fff" d="M0 0h28v20H0V0z"/><path fill="url(#paint0_linear)" d="M0 0h28v20H0V0z"/><path fill="#8FC5FF" fill-rule="evenodd" d="M17.333 10V6.666c0-.737.597-1.333 1.334-1.333h4c.736 0 1.333.596 1.333 1.333V10c0 3.333-3.333 4.667-3.333 4.667S17.333 13.333 17.333 10z" clip-rule="evenodd"/><mask id="a" width="7" height="10" x="17" y="5" maskUnits="userSpaceOnUse"><path fill="#fff" fill-rule="evenodd" d="M17.333 10V6.666c0-.737.597-1.333 1.334-1.333h4c.736 0 1.333.596 1.333 1.333V10c0 3.333-3.333 4.667-3.333 4.667S17.333 13.333 17.333 10z" clip-rule="evenodd"/></mask><g mask="url(#a)"><path fill="#366CC9" fill-rule="evenodd" d="M20.09 11.884s.667-.864 1.06-.864c.392 0 .464.573 1.068.573.603 0 .922-.914 1.503-.914.581 0 0 3 0 3l-.788.812-4.611.533 1.768-3.14z" clip-rule="evenodd"/><path fill="#CF6200" fill-rule="evenodd" d="M18.126 10.551l.589-.551.578 1.416.776-1.416.668 4.035-1.11-.226L16 12.152l2.126-1.6v-.001z" clip-rule="evenodd"/><path fill="#FF0" d="M17.333 5.333H24v4h-6.667v-4z"/><path stroke="#fff" stroke-width=".667" d="M17.667 10V6.666a1 1 0 011-1h4a1 1 0 011 1V10c0 1.543-.768 2.626-1.557 3.336a6.26 6.26 0 01-1.443.966h-.001a6.25 6.25 0 01-1.443-.966c-.788-.71-1.556-1.793-1.556-3.336v0z"/></g><defs><linearGradient id="paint0_linear" x1="0" x2="0" y1="0" y2="20" gradientUnits="userSpaceOnUse"><stop stop-color="#07319C"/><stop offset="1" stop-color="#00247E"/></linearGradient></defs></svg>