<svg xmlns="http://www.w3.org/2000/svg" fill="none" aria-hidden="true" viewBox="0 0 28 20"><path fill="#fff" d="M0 0h28v20H0V0z"/><path fill="#fff" d="M0 0h28v20H0V0z"/><path fill="#0062F3" d="M10.2 1.1H28v1.1H10.2V1.1zm0 2.2H28v1.1H10.2V3.3zm0 2.3H28v1.1H10.2V5.6zm0 2.2H28v1.1H10.2V7.8zm0 2.2H28v1.1H10.2V10zm0 2.2H28v1.1H10.2v-1.1zm0 2.2H28v1.1H10.2v-1.1zm0 2.3H28v1.1H10.2v-1.1zm0 2.2H28V20H10.2v-1.1zm-5.9-8H2.1v2.2h2.2v-2.2zm-2.2 4.6c0 .4.2.7.4.9l1.9.6v-3H2.1v1.5zm5.8-4.6H5.4v2.2h2.5v-2.2zm-2.5 6.2l2.1-.7c.3-.2.4-.6.4-.9v-1.4H5.4v3z"/><path fill="#E2E2E2" d="M1.1 9.9v5.6c0 .7.3 1.4.9 1.8l2.9 1 2.9-1c.6-.4.9-1.1.9-1.8V9.9H1.1zM4.4 17l-1.8-.6c-.3-.2-.4-.6-.4-.9v-1.4h2.2V17zm0-3.9H2.1v-2.2h2.2v2.2h.1zm3.5 2.4c0 .4-.2.7-.4.9l-2.1.7V14h2.5v1.5zm0-2.4H5.4v-2.2h2.5v2.2z"/><path fill="#FECD25" d="M9.2 4.2C8.7 2.3 6.6 3 5.6 3.5c-.1 0-.1 0-.1-.1V1.7c-.3-.3-.7-.3-1 0v1.6c0 .1-.1.1-.1.1-1.2-.4-3.2-1-3.7.8C.4 5.3 2 6.1 2 6.1v1.2h5.8V6.1c.1 0 1.8-.8 1.4-1.9z"/><path fill="#BB1A28" d="M4.4 4.6c0-.4-.5-.8-1.6-.8-.6 0-1.1.3-1.1.8s.5.8 1.1.8h1.3s.3 0 .3-.2v-.6zm1.2 0c0-.4.5-.8 1.6-.8.6 0 1.1.3 1.1.8 0 .4-.5.8-1.1.8H5.8s-.3 0-.3-.2.1-.6.1-.6z"/></svg>