<svg xmlns="http://www.w3.org/2000/svg" fill="none" aria-hidden="true" viewBox="0 0 28 20"><path fill="#fff" d="M0 0h28v20H0V0z"/><path fill="#2ACB41" fill-rule="evenodd" d="M0 20h28v-6.667H0V20zM0 6.667h28V0H0v6.667z" clip-rule="evenodd"/><path fill="#FDD043" fill-rule="evenodd" d="M0 13.333h28V6.667H0v6.666z" clip-rule="evenodd"/><path fill="#E71E43" fill-rule="evenodd" d="M0 0l10.667 10L0 20V0z" clip-rule="evenodd"/><path fill="#262626" fill-rule="evenodd" d="M14.667 11.093l-1.568 1.064.528-1.82-1.497-1.161 1.894-.06.643-1.783.642 1.782 1.894.061-1.496 1.162.527 1.82-1.567-1.065zm6.666 0l-1.567 1.064.528-1.82-1.497-1.161 1.894-.06.642-1.783.643 1.782 1.893.061-1.496 1.162.528 1.82-1.568-1.065z" clip-rule="evenodd"/></svg>