<svg xmlns="http://www.w3.org/2000/svg" fill="none" aria-hidden="true" viewBox="0 0 28 20"><path fill="#fff" d="M0 0h28v20H0V0z"/><path fill="#486BCA" fill-rule="evenodd" d="M0 4h28V0H0v4zm0 16h28v-4H0v4z" clip-rule="evenodd"/><path fill="#FFDF20" fill-rule="evenodd" d="M0 16h28V4H0v12z" clip-rule="evenodd"/><path fill="#CF1615" fill-rule="evenodd" d="M0 14.667h28V5.333H0v9.334z" clip-rule="evenodd"/><path fill="#fff" fill-rule="evenodd" d="M14 13.333c3.314 0 6-3.333 6-3.333s-2.686-3.333-6-3.333S8 10 8 10s2.686 3.333 6 3.333z" clip-rule="evenodd"/><mask id="a" width="12" height="8" x="8" y="6" maskUnits="userSpaceOnUse"><path fill="#fff" fill-rule="evenodd" d="M14 13.333c3.314 0 6-3.333 6-3.333s-2.686-3.333-6-3.333S8 10 8 10s2.686 3.333 6 3.333z" clip-rule="evenodd"/></mask><g fill-rule="evenodd" clip-rule="evenodd" mask="url(#a)"><path fill="#262626" d="M14.667 6.667H8v6.666h5.333l1.334-6.666z"/><path fill="#1A1A1A" d="M15.333 10.667a.667.667 0 100-1.334.667.667 0 000 1.334z"/><path fill="#F6F6F6" d="M12.667 10.667a.667.667 0 10.052-1.332.667.667 0 00-.052 1.332z"/></g></svg>