<svg xmlns="http://www.w3.org/2000/svg" fill="none" aria-hidden="true" viewBox="0 0 28 20"><path fill="#fff" d="M0 0h28v20H0V0z"/><path fill="#D9101C" fill-rule="evenodd" d="M0 6.667h28V0H0v6.667z" clip-rule="evenodd"/><path fill="#0F7811" fill-rule="evenodd" d="M0 20h28v-6.667H0V20z" clip-rule="evenodd"/><path fill="#FAD14E" fill-rule="evenodd" d="M13.333 8.667A.667.667 0 1112 8.72a.667.667 0 011.333-.052zM14.667 10c0 .12-.032.377-.088.667h.754a.665.665 0 01.488 1.147.664.664 0 01-.488.186h-2.666a.668.668 0 010-1.333h.754a4.357 4.357 0 01-.088-.667.667.667 0 111.334 0zM16 8.667a.667.667 0 11-1.333.052A.667.667 0 0116 8.667zm2 2a.667.667 0 100-1.333.667.667 0 000 1.333zM10.667 10a.667.667 0 11-1.334 0 .667.667 0 011.334 0z" clip-rule="evenodd"/></svg>