<svg xmlns="http://www.w3.org/2000/svg" fill="none" aria-hidden="true" viewBox="0 0 28 20"><path fill="#fff" d="M0 0h28v20H0V0z"/><path fill="#30C375" fill-rule="evenodd" d="M0 20h28V0H0v20z" clip-rule="evenodd"/><path fill="#DE414F" d="M4 0h4v20H4V0z"/><path fill="#fff" fill-rule="evenodd" d="M6 4c1.105 0 2-.597 2-1.333 0-.737-.895-1.334-2-1.334S4 1.93 4 2.667C4 3.403 4.895 4 6 4z" clip-rule="evenodd"/><mask id="a" width="4" height="3" x="4" y="1" maskUnits="userSpaceOnUse"><path fill="#fff" fill-rule="evenodd" d="M6 4c1.105 0 2-.597 2-1.333 0-.737-.895-1.334-2-1.334S4 1.93 4 2.667C4 3.403 4.895 4 6 4z" clip-rule="evenodd"/></mask><g mask="url(#a)"><path fill="#DD404F" fill-rule="evenodd" d="M6 3.333A.667.667 0 106.052 2 .667.667 0 006 3.333z" clip-rule="evenodd"/><path fill="#FBAF29" d="M4 1.333h2v1.333H4V1.333zm2 1.334h2V4H6V2.667z"/></g><mask id="b" width="4" height="3" x="4" y="16" maskUnits="userSpaceOnUse"><path fill="#fff" fill-rule="evenodd" d="M6 18.667c1.105 0 2-.597 2-1.334C8 16.597 7.105 16 6 16s-2 .597-2 1.333c0 .737.895 1.334 2 1.334z" clip-rule="evenodd"/></mask><g mask="url(#b)"><path fill="#DD404F" fill-rule="evenodd" d="M6 18a.667.667 0 10.052-1.333A.667.667 0 006 18z" clip-rule="evenodd"/><path fill="#FBAF29" d="M4 16h2v1.333H4V16zm2 1.333h2v1.333H6v-1.333z"/></g><mask id="c" width="4" height="3" x="4" y="9" maskUnits="userSpaceOnUse"><path fill="#fff" fill-rule="evenodd" d="M6 12c1.105 0 2-.597 2-1.333 0-.737-.895-1.334-2-1.334s-2 .597-2 1.334C4 11.403 4.895 12 6 12z" clip-rule="evenodd"/></mask><g mask="url(#c)"><path fill="#DD404F" fill-rule="evenodd" d="M6 11.333c.736 0 1.333-.298 1.333-.666C7.333 10.299 6.736 10 6 10s-1.333.299-1.333.667c0 .368.597.666 1.333.666z" clip-rule="evenodd"/></g><mask id="d" width="4" height="3" x="4" y="5" maskUnits="userSpaceOnUse"><path fill="#fff" fill-rule="evenodd" d="M6 8c1.105 0 2-.597 2-1.333 0-.737-.895-1.334-2-1.334S4 5.93 4 6.667C4 7.403 4.895 8 6 8z" clip-rule="evenodd"/></mask><g mask="url(#d)"><path fill="#DD404F" fill-rule="evenodd" d="M6 7.333A.667.667 0 106.052 6 .667.667 0 006 7.333z" clip-rule="evenodd"/><path fill="#28AE67" d="M4 5.333h1.333V8H4V5.333zm2.667 0H8V8H6.667V5.333z"/></g></svg>