<svg xmlns="http://www.w3.org/2000/svg" fill="none" aria-hidden="true" viewBox="0 0 28 20"><path fill="#fff" d="M0 0h28v20H0V0z"/><path fill="#E20F1B" fill-rule="evenodd" d="M28 0H16v10.667H0V20h28V0z" clip-rule="evenodd"/><path fill="url(#paint0_linear)" fill-rule="evenodd" d="M7 1.333a.333.333 0 00-.333.334V4H4.333A.333.333 0 004 4.333v2c0 .184.15.334.333.334h2.334V9c0 .184.149.333.333.333h2A.333.333 0 009.333 9V6.667h2.334c.184 0 .333-.15.333-.334v-2A.334.334 0 0011.667 4H9.333V1.667A.333.333 0 009 1.333H7z" clip-rule="evenodd"/><defs><linearGradient id="paint0_linear" x1="4" x2="4" y1="1.333" y2="9.333" gradientUnits="userSpaceOnUse"><stop stop-color="#DF101B"/><stop offset="1" stop-color="#C00711"/></linearGradient></defs></svg>