<svg xmlns="http://www.w3.org/2000/svg" fill="none" aria-hidden="true" viewBox="0 0 28 20"><g clip-path="url(#clip0)"><path fill="#009CDE" d="M28 0H0v20.003h28V0z"/><path fill="#FEDD00" d="M15.058 15.458l.687 2.114-1.798-1.306h2.223l-1.799 1.306.687-2.114zm4.016-.628l-.687 2.113-.687-2.114 1.799 1.307h-2.223l1.798-1.307zm0-2.848l-.687 2.115-.687-2.115 1.8 1.308h-2.223l1.798-1.307zm2.941 2.128l-.687 2.115-.687-2.115 1.798 1.307h-2.223l1.799-1.307zm0-6.194l-.687 2.114-.687-2.114 1.798 1.307h-2.223l1.799-1.307zm1.235 4.019l.687 2.114-1.798-1.307h2.223l-1.798 1.307.686-2.114zm1.235-4.864l-.687 2.115-.686-2.115 1.798 1.307h-2.223l1.798-1.307zm1.248 3.266l.687 2.114-1.798-1.306h2.222l-1.798 1.306.687-2.114zm0-5.463l.687 2.114-1.798-1.306h2.222l-1.798 1.306.687-2.114z"/><path fill="#012169" d="M0 0h15.758v9.244L0 9.264V0z"/><path fill="#fff" d="M.001 0v1.034L13.99 9.248h1.76V8.214L1.763 0H0zm15.75 0v1.034L1.761 9.248H.002V8.214L13.99 0h1.761z"/><path fill="#fff" d="M6.564.001v9.248h2.625V.001H6.564zM0 3.084v3.082h15.75V3.084H.001z"/><path fill="#C00" d="M0 3.7v1.85h15.75V3.7H0zM7.088.001v9.248h1.575V.001H7.088zM0 9.249l5.25-3.083h1.174L1.174 9.25H0zM0 .001l5.25 3.083H4.076L0 .69V.001zm9.326 3.083L14.576 0h1.174L10.5 3.084H9.326zm6.424 6.165L10.5 6.166h1.174L15.75 8.56v.689z"/></g><defs><clipPath id="clip0"><path fill="#fff" d="M0 0h28v20H0z"/></clipPath></defs></svg>