<svg xmlns="http://www.w3.org/2000/svg" fill="none" aria-hidden="true" viewBox="0 0 28 20"><path fill="#fff" d="M0 0h28v20H0V0z"/><path fill="#063191" fill-rule="evenodd" d="M0 13.333h28V6.667H0v6.666z" clip-rule="evenodd"/><path fill="#E2213B" fill-rule="evenodd" d="M0 20h28v-6.667H0V20z" clip-rule="evenodd"/><path fill="#fff" fill-rule="evenodd" d="M14 9.333A.667.667 0 1014.052 8 .667.667 0 0014 9.333zM11.333 10a.667.667 0 10.052-1.332.667.667 0 00-.052 1.332zm6-.667a.665.665 0 01-.928.64.666.666 0 11.928-.64zM10 12a.667.667 0 10.052-1.333A.667.667 0 0010 12zm8.667-.667a.667.667 0 11-1.334 0 .667.667 0 011.334 0z" clip-rule="evenodd"/><path fill="#FFD044" fill-rule="evenodd" d="M0 6.667h28V0H0v6.667z" clip-rule="evenodd"/></svg>