<svg xmlns="http://www.w3.org/2000/svg" fill="none" aria-hidden="true" viewBox="0 0 28 20"><g clip-path="url(#clip0)"><path fill="#fff" d="M0 0h28v20H0V0z"/><path fill="#E31F37" d="M0 0h28v20H0V0z"/><path fill="#083B9A" fill-rule="evenodd" d="M-1.333 10.667h16v-12h-16v12z" clip-rule="evenodd"/><path fill="#fff" fill-rule="evenodd" d="M6.667 2.667l-.943.276L6 2l-.276-.943.943.276.942-.276L7.333 2l.276.943-.942-.276zm0 6.666l-.943.276L6 8.667l-.276-.943.943.276.942-.276-.276.943.276.942-.942-.276zm-3.61-3.057L4 6l.943.276-.276-.943.276-.942L4 4.667l-.943-.276.276.942-.276.943zM10 5.333l-.943.276.276-.942-.276-.943L10 4l.943-.276-.276.943.276.942L10 5.333zM8.667 7A.334.334 0 118 7a.334.334 0 01.667 0z" clip-rule="evenodd"/></g><defs><clipPath id="clip0"><path fill="#fff" d="M0 0h28v20H0z"/></clipPath></defs></svg>