<svg xmlns="http://www.w3.org/2000/svg" fill="none" aria-hidden="true" viewBox="0 0 28 20"><path fill="url(#paint0_linear)" d="M28 0H0v20h28V0z"/><path fill="#333" d="M7.483 13.92H5.89l2.9-8.242h1.843l2.905 8.242h-1.593l-2.2-6.551H9.68l-2.197 6.55zm.052-3.232h4.346v1.2H7.535v-1.2zm9.262 5.655c-.458.01-.915-.06-1.348-.21a2.402 2.402 0 01-.906-.559 1.935 1.935 0 01-.475-.768l1.313-.319c.07.125.155.239.256.34.13.128.286.229.457.294.232.086.479.127.726.12.366.013.726-.091 1.028-.299a1.117 1.117 0 00.406-.962v-1.17h-.072c-.09.167-.2.323-.328.462a1.74 1.74 0 01-.569.399c-.28.115-.58.17-.883.16a2.515 2.515 0 01-1.29-.336 2.362 2.362 0 01-.917-1.006 3.695 3.695 0 01-.34-1.68 3.927 3.927 0 01.34-1.72c.198-.436.517-.806.92-1.067a2.376 2.376 0 011.291-.364 1.93 1.93 0 01.895.183c.215.107.407.256.562.439.125.147.231.309.319.48h.08V7.74h1.435v6.282a2.13 2.13 0 01-.377 1.293 2.26 2.26 0 01-1.035.773c-.476.177-.98.264-1.488.256zm.012-3.655c.28.009.555-.07.789-.225a1.38 1.38 0 00.494-.648c.12-.324.178-.668.17-1.014a2.865 2.865 0 00-.168-1.022 1.502 1.502 0 00-.49-.682 1.425 1.425 0 00-1.608.01 1.553 1.553 0 00-.492.694 2.84 2.84 0 00-.164 1 2.7 2.7 0 00.166.992c.097.264.27.493.496.66.237.163.52.245.807.236z"/><defs><linearGradient id="paint0_linear" x1="-.001" x2="28.001" y1="20.501" y2="-.501" gradientUnits="userSpaceOnUse"><stop stop-color="#F3F3F3"/><stop offset="1" stop-color="#C3CFE2"/></linearGradient></defs></svg>