<svg xmlns="http://www.w3.org/2000/svg" fill="none" aria-hidden="true" viewBox="0 0 28 20"><path fill="url(#paint0_linear)" d="M28 0H0v20h28V0z"/><path fill="#333" d="M8.4 14.5H6.9l2.9-8.8h1.8l2.9 8.8h-1.6l-2.2-7h-.1l-2.2 7zm.1-3.4h4.3v1.3H8.5v-1.3zm10.9.7V7.9h1.4v6.6h-1.4v-1.2a1.764 1.764 0 01-.8.9c-.35.251-.769.39-1.2.4a2.015 2.015 0 01-1.1-.3 2.696 2.696 0 01-.7-.8 2.77 2.77 0 01-.3-1.3V7.9h1.4v4a1.69 1.69 0 00.3 1c.207.229.493.371.8.4.212-.02.418-.09.6-.2.204-.132.394-.284.567-.455.207-.245.355-.534.433-.845z"/><defs><linearGradient id="paint0_linear" x1=".001" x2="28.002" y1="20.499" y2="-.502" gradientUnits="userSpaceOnUse"><stop stop-color="#FFE79B"/><stop offset="1" stop-color="#FFC100"/></linearGradient></defs></svg>