<svg xmlns="http://www.w3.org/2000/svg" fill="none" aria-hidden="true" viewBox="0 0 28 20"><path fill="#D6D6D6" d="M0 0h28v20H0V0z"/><path fill="#333" d="M5.504 7.142l1.444 2.402H7l1.45-2.402h1.354l-2.02 3.279 2.052 3.28H8.46L7 11.314h-.05L5.488 13.7H4.117l2.071-3.28-2.046-3.278h1.36zM15.99 9.355h-1.2a1.427 1.427 0 00-.998-1.154 1.867 1.867 0 00-.562-.082 1.706 1.706 0 00-.947.267 1.775 1.775 0 00-.647.782 3.02 3.02 0 00-.234 1.253c-.013.434.067.867.235 1.268.135.316.36.585.647.774.283.176.61.267.943.26.187.002.373-.025.552-.077.167-.05.324-.13.465-.233a1.421 1.421 0 00.546-.89l1.198.006a2.614 2.614 0 01-.87 1.6 2.66 2.66 0 01-.84.486c-.343.12-.704.18-1.067.175a2.983 2.983 0 01-1.543-.4 2.79 2.79 0 01-1.07-1.157 3.895 3.895 0 01-.39-1.812 3.873 3.873 0 01.393-1.814c.241-.479.613-.88 1.073-1.154.467-.27.998-.409 1.537-.4.345-.003.69.049 1.018.154.305.097.59.25.84.45.247.199.453.445.607.723.164.302.27.633.312.975zm2.952 4.345H16.72V7.142h2.267a3.392 3.392 0 011.679.393c.465.258.842.65 1.081 1.125a3.79 3.79 0 01.378 1.755 3.8 3.8 0 01-.38 1.76 2.648 2.648 0 01-1.092 1.132 3.483 3.483 0 01-1.71.393zm-1.034-1.027h.977c.396.014.789-.073 1.142-.252a1.58 1.58 0 00.689-.752c.165-.397.244-.825.23-1.255a2.984 2.984 0 00-.23-1.25 1.582 1.582 0 00-.68-.746 2.283 2.283 0 00-1.116-.248h-1.012v4.503z"/></svg>