<svg xmlns="http://www.w3.org/2000/svg" fill="none" aria-hidden="true" viewBox="0 0 28 20"><path fill="#D6D6D6" d="M0 0h28v20H0V0z"/><path fill="#3A76BC" d="M7.639 10.09a6.445 6.445 0 1012.89 0 6.445 6.445 0 00-12.89 0zm.173 0a6.263 6.263 0 116.272 6.272 6.275 6.275 0 01-6.272-6.273z"/><path fill="#3A76BC" fill-rule="evenodd" d="M8.598 4.833v6.08c0 .435.058.867.173 1.286.227.798.664 1.52 1.266 2.091a7.293 7.293 0 001.841 1.304 9.63 9.63 0 001.592.653c.138.053.279.098.422.134.039 0 .077.019.115.019a8.05 8.05 0 00.921-.23 8.089 8.089 0 001.688-.71 5.937 5.937 0 001.765-1.4 4.904 4.904 0 001.074-2.302 10.52 10.52 0 00.115-1.746c0-.767 0-1.553.02-2.34 0-.729 0-1.458.018-2.206v-.633H8.598zm7.385 10.07c-.02 0-.038.02-.077.02h-.096c-.096.038-.172.077-.249.115-.066.028-.13.06-.192.096l-.23.057c-.123.044-.253.07-.384.077a1.033 1.033 0 01-.422-.077 1.97 1.97 0 00-.191-.076c-.135-.077-.288-.154-.422-.23a.452.452 0 01-.154-.173c-.038-.02-.057-.058-.096-.096-.038-.02-.077-.077-.115-.077h-.173c-.019 0-.038-.038-.038-.057-.019-.02-.038-.02-.057-.039-.02-.019-.039-.038-.058-.038-.038-.02-.038-.038-.057-.02.038.058.076.097.115.154.019.039 0 .077.038.077s.096-.02.134-.02c.154.02.23.174.288.308a.8.8 0 01.038.21v.097a.325.325 0 00-.038.096c0 .019-.02.076-.038.076a.272.272 0 01-.116.039.33.33 0 01-.191-.02.398.398 0 01-.192-.115.255.255 0 01-.096-.057.936.936 0 01-.058-.134v-.077c0-.039-.019-.096-.019-.115a.551.551 0 01.115-.211l.058.115c.02.038.038.057.077.02.038-.04-.02-.078-.039-.097a.07.07 0 01-.019-.057.07.07 0 00-.02-.058l-.095-.096c-.02-.019-.077-.057-.077-.077 0-.019-.019-.115-.057-.057-.039.038 0 .057.019.115a.863.863 0 01-.211-.058 2.426 2.426 0 00-.192-.057c-.115-.038-.23-.096-.345-.134a3.32 3.32 0 00-.403-.135c-.02-.019-.038-.019-.077-.019-.019 0-.076-.019-.115 0-.019 0-.057.02-.077.02-.038 0-.076 0-.095-.039-.116-.077-.116-.211-.192-.326a.964.964 0 00-.288-.269.39.39 0 01-.134-.115c0-.038-.02-.076.019-.076.057 0 .057 0 .096.057.038.02.115.02.153.038.058.039.134.077.192.116.113.07.222.147.326.23.106.079.222.143.345.191.11.063.226.114.346.154a.37.37 0 01.191.057c.039.02.058.02.077 0 .02-.038.039-.057.039-.095.019 0 .019-.02.038-.039l-.02-.019a.203.203 0 01-.038-.096c.02-.038.039-.057.058-.096a.262.262 0 00.057-.077.418.418 0 01.154-.095.562.562 0 01.173-.039.642.642 0 01.191 0c.039.02.058.039.096.039h.096a.196.196 0 01.039.172.365.365 0 01-.096.192c-.02.038-.02.077-.039.096l-.115.057a.511.511 0 01-.23.058h-.115c-.02-.02-.096-.02-.096-.038-.02-.039.039-.058.058-.096.019-.02-.02-.077-.039-.096l-.019.019v.038c-.02.039-.057.058-.077.077l-.019.02c0 .018.02.038 0 .057 0 .019-.038.038-.038.057.057.039.115 0 .172.02.02 0 .058.019.077.019.058 0 .096.019.134.019h.116c.019 0 .038-.038.076-.038.06-.01.118-.03.173-.058.019-.02.057-.02.077-.038a.264.264 0 01.057-.077c.058-.058.096-.115.134-.154.096-.076.211-.153.307-.23.124-.071.252-.135.384-.191a.653.653 0 01.192-.02.653.653 0 00.192-.019c.127-.01.255-.01.383 0 .077.02.154.02.23.039a.594.594 0 00.192.019h.192c.077 0 .134-.02.192-.02a.649.649 0 01.192.02c.019.019.172.057.096.096a.577.577 0 01-.192.076.345.345 0 00-.173.077.67.67 0 01-.153.096.575.575 0 01-.192.077 2.03 2.03 0 01-.365.115c-.057.019-.134.038-.191.057-.039.02-.077 0-.096 0-.039 0-.058.02-.096.039h-.096c-.039.019-.077.019-.096.038-.077 0-.134.02-.211.02-.126.03-.254.048-.384.057h-.364c-.077-.02-.115.019-.173.038-.038.02-.057.039-.077.039-.038.019.058.057.058.057.069.017.14.023.211.02a.144.144 0 00.077-.02c.019-.02.038-.02.096-.038.121-.01.243-.01.364 0 .077.019.134.019.211.038a.574.574 0 00.192.077c.112.043.221.094.326.153a.82.82 0 00.211.039c.058.019.096.038.153.057.123.046.253.072.384.077h.134c.058 0 .096-.038.135-.02h.115a.098.098 0 01.076.039c.058.02.077.02.058.077zm.998-1.016c-.02.02-.02.038-.039.038h-.076s-.039.039-.058.039l-.173.172c-.096.058-.172.154-.268.212a1.068 1.068 0 00-.154.115c-.057.019-.134.076-.192.096a3.06 3.06 0 01-.402.095 2.703 2.703 0 01-.384-.019 1.524 1.524 0 01-.288-.057c-.096-.039-.192-.058-.287-.096-.116-.039-.212-.096-.307-.134a2.6 2.6 0 00.383.038h.422c.058 0 .135-.02.192-.02a.842.842 0 00.192-.038c.127-.018.25-.056.364-.115a.422.422 0 00-.153.02c-.02.019-.039 0-.077 0-.019 0-.038.019-.077.019-.038 0-.057-.02-.095-.02-.02 0-.039.02-.077.02-.058.019-.134.019-.192.038a1.761 1.761 0 01-.307.02h-.173c-.038 0-.115.018-.153-.02a.45.45 0 01.153-.038c.077-.02.135-.02.192-.039.132-.033.26-.078.384-.134.115-.038.25-.096.383-.134h.442c.132-.02.261-.06.383-.115.082-.023.165-.035.25-.039h.115c.019 0 .019 0 .038.02.02 0 .058.057.039.076zm-.748-1.19a3.318 3.318 0 01-1.842-.575c-.058-.038-.115-.095-.173-.134-.038-.019-.057-.057-.096-.077-.019-.019-.019-.038-.038-.019l-.057.058a3.62 3.62 0 01-1.266.652 3.324 3.324 0 01-3.108-.882 3.24 3.24 0 012.954-5.429c.314.078.616.194.902.345.142.07.277.153.402.25.058.038.116.096.173.134.02.02.02.02.038 0 .02-.02.039-.038.058-.038a.192.192 0 01.096-.077 3.214 3.214 0 015.16 2.187 3.239 3.239 0 01-3.203 3.606z" clip-rule="evenodd"/><path fill="#3A76BC" fill-rule="evenodd" d="M15.082 14.961a.97.97 0 01-.25-.038c-.096-.02-.173-.057-.268-.077a4.495 4.495 0 01-.46-.172.85.85 0 00-.384-.058c.019.039.153.058.191.058.05.029.1.055.154.076.115.058.23.135.345.192.058.02.134.058.192.077.077 0 .134.02.192.02.09.009.18.009.268 0a.346.346 0 01.192-.04c.02 0 .02-.038.02-.038h-.192zm-3.875-1.304c-.039-.02-.077-.077-.115-.096-.02.038.076.096.096.115.019.02.115.115.096.173-.02-.02-.039-.02-.039 0 0 .019.02.057.02.076 0 .02.019.039.019.058.038.038.076.02.095-.02a.37.37 0 00-.057-.191c-.02-.038-.077-.077-.115-.115zm2.321.479c.134-.038.25-.076.364-.115.127-.033.255-.058.384-.076a1.46 1.46 0 01.403-.058c.057 0 .134-.019.192-.019.053-.022.104-.047.153-.077a.867.867 0 01.211-.057c.058-.02.134 0 .173-.02.019 0 .038 0 .038-.019s0-.019-.02-.019h-.114c-.058 0-.115.02-.173.02-.134.018-.268.018-.403.038-.123.01-.244.029-.364.057-.15.036-.297.081-.441.134-.154.058-.288.135-.441.192a.06.06 0 00.038.02z" clip-rule="evenodd"/><path fill="#3A76BC" d="M8.675 9.456a3.3 3.3 0 003.3 3.3c.8.004 1.572-.29 2.167-.825a3.275 3.275 0 001.131-2.475 3.337 3.337 0 00-1.131-2.474 3.305 3.305 0 00-5.467 2.474zm.134 0a3.164 3.164 0 013.165-3.146 3.115 3.115 0 012.09.787 3.148 3.148 0 010 4.738 3.115 3.115 0 01-2.09.786A3.168 3.168 0 018.81 9.456z"/><path fill="#3A76BC" d="M10.459 7.25a.244.244 0 01.115-.077.067.067 0 01.038.02c-.019.038-.038.038-.038.057a.573.573 0 01-.077.154c-.02.019.02.019-.02.038-.018 0-.037.02-.057.02a.07.07 0 01-.057.018c-.02 0-.039-.019-.058-.019-.019 0-.057.02-.057-.019 0-.02.019-.038.038-.058.038-.038.077 0 .134-.019.039-.019.02-.076.039-.115zm-.269.211c.02-.019.039 0 .02.02-.02 0-.039-.02-.02-.02z"/><path fill="#3A76BC" d="M14.103 7.154a.673.673 0 00-.153-.096c-.058-.038-.096-.096-.154-.134a.263.263 0 00-.076-.058c-.02-.019-.039-.019-.077-.038a.311.311 0 00-.173-.096h-.077a.106.106 0 00-.095.039h-.039c-.019 0-.019.038-.019.038-.02.02-.02.058-.038.077-.02.038-.039.057-.058.057h-.115a.144.144 0 01-.096.02c-.02 0-.057.019-.077.019a.244.244 0 01-.115.019.208.208 0 01-.096-.02c-.038 0-.057 0-.076.039a.265.265 0 01-.077.058.6.6 0 01-.192.095c-.02.02-.057.039-.077.058-.057.02 0 .02-.019.077-.019-.02-.038-.02-.057-.058 0 0-.02-.057-.039-.038a.07.07 0 00-.057.019c-.02.038-.02.038-.058.02-.057 0-.096.018-.153.018-.039 0-.096-.038-.115-.019a.115.115 0 01-.077.02.115.115 0 00-.02-.077.1.1 0 01-.038-.077.156.156 0 00-.153-.077c-.038 0-.058 0-.077-.02-.019-.018-.076-.037-.096-.018l-.057.057c-.02 0-.02.02-.039.02 0 .019-.019.019-.038.019-.038 0-.038.038-.077.038a.173.173 0 00-.096.02h-.096c-.038 0-.038.038-.076.057-.02.019-.02.038-.02.077 0 .038.058.019.077.019.02 0 .02 0 .02.019v.038c0 .039-.039.058-.039.077 0 .058.153.02.173 0a.06.06 0 01.019-.038c0-.02.02-.02.038-.02.02-.019.039-.057.058-.076a.39.39 0 01.134-.115c.02 0 .077 0 .077.019a.077.077 0 01-.038.077c-.02.019-.058-.02-.077 0-.02.019-.058.019-.077.057 0 .02-.02.02 0 .038l.02.02c.018 0 .057.019.076 0a.828.828 0 00.096-.02c.038 0 .077 0 .038.039-.019.057-.115.019-.153.038-.039.02-.077.02-.115.038-.02 0-.058-.019-.077.02-.02.019-.058.038-.077.057-.019.02-.077-.019-.077-.019-.076-.038 0-.134-.057-.173 0-.019-.058 0-.077 0a.173.173 0 00-.096.02.418.418 0 01-.153.096c-.038 0-.058.019-.096.019 0 .019-.058 0-.077 0h-.096c-.038 0-.038.019-.057.057-.02.02-.039.058-.058.077-.019.02-.019.058-.057.077-.02.019-.039-.039-.058-.039-.02-.019-.077.02-.096-.019-.019-.019-.038-.038-.057 0-.039.02-.058.038-.058.077 0 .038-.02.038-.038.057-.02.02-.058.039-.039.077a.18.18 0 01.02.096c0 .038.057.02.076.02.039 0 .096.018.135.018.057 0 .038 0 .076-.038 0-.02.02-.02.02-.038.019-.02 0-.02.019-.039.019 0 .076 0 .095.02 0 .019.058.019.077.019a.058.058 0 01.077 0c.038.019.038.038.058.076.019.02 0 .058 0 .077a.148.148 0 00.038.058c0 .019.02.038.02.057 0 .039 0 .039-.04.058v.057a.137.137 0 00.116-.057v.057a.194.194 0 00.057-.172c0-.02-.038-.039-.038-.058v-.057c0-.02 0-.02.02-.02.076 0 .057.077.057.135v.172c.038 0 .115 0 .134-.038 0-.02-.02-.058-.02-.077 0-.019.04-.019.058-.019a.173.173 0 00-.019.096c0 .02-.019.02 0 .038v.039c.02.019.058.019.077.038.02.02.02.02.02.038 0 .039.018.02.037.02.02 0 .058.057.039.057 0 .039-.02.077-.039.077s-.076 0-.096-.02a.324.324 0 01-.095-.038c-.02-.019-.02-.038-.058-.057h-.172c-.02-.039-.02-.058-.058-.077-.02-.038-.134-.038-.134-.096v-.057h.038c.02.038.02.057.038.076.039-.019.02-.038.02-.057l-.039-.039c-.019-.019 0-.019-.038-.019-.02 0 0 .02-.02 0-.018 0-.018-.019-.038-.019 0-.038 0-.02-.019-.038-.02 0-.02-.02-.038-.02a.115.115 0 00-.077-.019h-.211c-.038-.019-.058-.038-.096-.057-.02 0-.057-.039-.057-.039-.02.02-.039.039-.058.039a.851.851 0 01-.211.153 1.345 1.345 0 00-.441.422.23.23 0 00-.039.154c-.019.076-.019.134-.038.21 0 .04-.02.058-.02.097-.018.019 0 .057.02.076.02.058.038.135.058.192l.057.115v.077c0 .058 0 .058.039.077.019.038.038.019.076.019.058-.02.058-.02.096.02.02.018.039.018.077.018s.173-.019.192 0c.019.02.038.058.057.077.039 0 .096.02.096.038.02.02 0 .096 0 .115a.115.115 0 00.02.077c.033.06.059.125.076.192.02.057.077.115.077.173v.095c0 .036-.015.07-.039.097a.115.115 0 00.02.076.402.402 0 00.076.115c.02.039.039.096.058.135.05.137.107.272.173.402.019.058.057.115.076.173a.14.14 0 00.077.038c.02 0 .058-.038.077-.057.057-.039.134-.058.192-.096.057-.02.057-.115.076-.173 0-.019.02-.019.039-.038a.088.088 0 00.057-.134.067.067 0 01-.019-.039v-.076c0-.077.038-.077.077-.115a.176.176 0 00.057-.154v-.25c0-.018-.096-.114-.076-.134l.134-.134c.096-.096.192-.192.288-.307a.473.473 0 00.076-.172c0-.039.02-.058.039-.096 0 0 .057-.058.019-.077-.058-.02-.154.038-.211.077-.02 0-.077-.02-.096-.02-.058-.038-.058-.115-.096-.153-.02-.02-.038-.058-.058-.077-.019 0-.038.02-.038 0-.02 0 0-.038 0-.057a.609.609 0 00-.057-.173c-.02-.038-.02-.057-.039-.077a.209.209 0 01-.019-.096v-.095c0-.02.058-.058.058-.039.038.039.038.134.057.173.014.068.04.133.077.192 0 .038.038.038.057.057.039.02.02.058.039.077a.284.284 0 00.019.134c.02.058.038.058.077.058a.832.832 0 00.096-.02c.038-.019.057-.019.095-.038a.419.419 0 00.154-.096.173.173 0 01.096-.019c.019 0 .057-.057.057-.077l.058-.057c0-.02.02-.077 0-.077h-.038a.1.1 0 00-.039-.077c-.019-.019-.096-.019-.134-.019-.058 0-.058 0-.077-.038a.146.146 0 01-.038-.096c-.02-.02-.02-.02-.02-.058.02.02.058.02.058.039.016.03.022.062.02.096.019 0 .057-.02.076-.02.039 0 .039.02.077.039.019.019.038.057.057.057a.144.144 0 01.096.02c.058 0 .115-.02.154-.02.038 0 .057 0 .076.039a.264.264 0 01.058.076c.02.039.02.039.058.039.038 0 .038 0 .038.038a.345.345 0 00.038.192.8.8 0 00.115.153c.019.053.052.1.096.135a.405.405 0 00.058-.135c0-.038.02-.038.038-.057.02-.02.02-.038.02-.077a.15.15 0 01.057-.134c.038-.038.096-.077.134-.115a.175.175 0 01.135-.058c.019 0 .038.02.057.039.02.019 0 .057.02.076a.019.019 0 00.018.02c0 .019.02.019.039.019 0 .019.019.057.019.076.038.077.077.077.115.02.02.038.02.115.058.153.019.038.019.096.038.154.016.052.035.103.057.153.03.058.077.105.135.134.019 0 .038 0 .019-.038l-.007-.001a.018.018 0 01-.007-.005.019.019 0 01-.005-.014v-.057a1.314 1.314 0 00-.058-.153c-.019-.02-.057-.039-.077-.058-.019 0-.019-.038-.038-.057-.019-.058 0-.096.058-.135.038.039.076.115.134.135.038 0 .057-.039.077-.058.019-.02.019-.02.038-.02a.148.148 0 00.038-.057c.02-.057-.019-.134-.038-.21a.207.207 0 01-.02-.116c0-.019.058-.057.058-.076.02.019.039.038.02.057-.02.02 0 .02 0 .038a.037.037 0 00.057-.019c.02 0 0-.038 0-.057a.082.082 0 01.077-.077c.038-.02.077-.077.096-.096a.206.206 0 00.038-.115c0-.038.02-.096 0-.134-.019-.096-.019-.192-.096-.25.02-.019.058-.038.039-.057-.039-.039-.058 0-.077.019 0 0-.039-.058-.02-.077.02 0 .02-.019.04-.019.018-.02.018-.02.037 0l.058.058c.038.019.02.057.038.096 0 .019 0 .019.02.038.019 0 .019 0 .038-.02 0-.018.038-.038.038-.057 0-.038.02-.077 0-.096-.038-.038-.057-.038-.057-.096a.257.257 0 01.038-.172c.038-.02.038-.02.02-.077-.02 0-.04 0-.02-.02v-.038c0-.076.038-.115.02-.191a.67.67 0 00-.097-.154.264.264 0 00-.057-.077c-.02-.019-.077-.038-.077-.057a.026.026 0 010-.038.042.042 0 00-.038-.039c-.02-.019-.058.02-.077.02-.02 0 0-.077.02-.097 0-.019.018-.038.057-.038.038-.02.057-.02.076-.038.02-.02.02-.058.058-.077l.058.115c.019.02.019.038.038.038 0 .02.02 0 .02 0 .037.02.018.039.057.039.057 0 .096.038.153.038.038 0 .038.02.038-.019 0-.038-.019-.038-.019-.077zm-3.05.403c.02 0 .02.02 0 .038-.019 0-.038-.019 0-.038zm.135.729c-.02.038-.116-.038-.154-.02-.02 0-.077-.018-.057-.038 0-.019.019-.076.038-.076.02-.02.057-.039.077-.02l.019.02c0 .019.019.019.038.019.039 0 .039 0 .058.038a.116.116 0 01-.02.077zm.326-.02c-.02.02-.039.04-.02.078 0 .038.02.038-.019.095 0 .02 0 .058-.057.058-.02 0-.039.02-.058-.02-.019-.018 0-.038.02-.038.038 0 .019-.057.019-.076v-.077a.051.051 0 01.057-.058c.02-.019.077-.019.058.039zm-1.247-1.054a.067.067 0 00.038-.02.07.07 0 00.058.02c.019 0 .038.019.038.057 0 .02.02.039-.019.058-.02 0-.038.02-.058.02h-.076c-.039.018-.058.037-.077 0-.02-.058.02-.058.058-.078.019 0 .038-.038.038-.057z"/><path fill="#3A76BC" d="M11.13 10.492c0-.039 0-.039.038-.058a.088.088 0 01.058.058c.038.057.02.115.02.192 0 .019-.04.057-.04.076a.1.1 0 00-.037.077.823.823 0 00-.02.096c0 .02.039.058.02.077 0 0-.039.038-.058.038-.02-.019-.058-.038-.077-.077-.038-.038-.019-.115-.019-.153v-.096c-.02-.038 0-.057 0-.096.02-.019.02-.057.038-.077.039 0 .039-.038.077-.057zm1.228-.863c0-.02.057-.077.057-.077.039.02.02.077.02.096 0 .02-.02.077-.058.077-.039-.02-.02-.077-.02-.096zm.556.096a.23.23 0 01.154.038.825.825 0 01.21.211c.039.02 0 .115 0 .153-.019.039-.076-.095-.095-.095a.827.827 0 00-.077-.135c-.02-.019-.096-.096-.115-.096a.115.115 0 01-.077-.019s-.02-.038 0-.057zm.422.325c.02.02.02.058.038.097 0 .019.077.019.096.019.02 0 .077 0 .077.02.038.037.02.076-.02.076a.1.1 0 00-.076-.039c-.038 0-.057-.019-.096-.019-.019-.019-.057-.038-.038-.077.02-.019 0-.057.02-.076zm.268.212a.116.116 0 01.077.019h.058c.038 0 .057 0 .077.02.038 0 .057.018.019.037-.02.02-.115-.019-.135-.019-.038 0-.038-.019-.076-.019-.02 0-.058-.02-.02-.038zm.326.076h.058c.02.039.02.058-.019.058h-.057c-.02-.02-.02 0-.039 0-.02.02-.057.02-.057 0-.02 0-.039-.038-.02-.038.039 0 .116 0 .135-.02zm-.517-.575a.174.174 0 00.134-.057c.02-.02.058-.039.077-.058.019-.02.038-.058.057-.038.02 0 .077.019.077.038-.02.038-.02.02-.057.058-.02 0-.02.038 0 .057.038.038.019.038 0 .077-.02.019-.058.057-.058.077 0 .038-.02.038-.02.076a.036.036 0 01-.028.015.036.036 0 01-.029-.015c-.019-.019-.038-.019-.077-.019-.019 0-.057.02-.076 0a.432.432 0 01-.02-.077c-.019-.019-.038-.038-.019-.076 0-.039 0-.039.039-.058zm.537.096a.285.285 0 00-.173.038.15.15 0 00-.057.134v.077c.019.02.057.058.076.058.058-.02-.038-.096-.019-.135.02 0 .02.02.039.039a.041.041 0 00.038.038c.019 0 .057-.019.038-.019a.041.041 0 00-.038-.038c-.058-.039.038-.039.057-.039.058-.057-.057-.038-.076-.038 0-.038.038-.058.076-.058.02 0 .077-.019.039-.057zm.038-.134c.02 0 .077 0 .077.019s-.02.038-.02.057c0 .02.02 0 .04.02.018.019-.02.057-.02.057-.02.02-.096-.02-.096-.038-.02-.058.02-.077.02-.115zm-.115-.25a.088.088 0 01.058-.057c.019 0 .038.057.019.076-.02.039.02.039.02.077 0 .039.037.077 0 .096-.059 0-.059-.02-.078-.038a.07.07 0 00-.057-.02.019.019 0 01-.006.014.019.019 0 01-.013.006c-.039 0-.039-.039-.02-.058.039 0 .058-.019.096 0 0-.019.02-.038.02-.057 0-.02-.02-.02-.039-.039zm-.057-.115c.019 0 .076.058.038.058s-.077-.039-.038-.058zm.076-.057c.01.018.016.037.02.057 0 .02-.02 0-.039 0-.038 0-.02-.096.02-.057zm-.115-.23c.02 0 .039 0 .058.038.019.02 0 .038-.02.057-.019 0 .02.058.02.077.019 0 .019.058 0 .058a.146.146 0 01-.077-.039.037.037 0 01-.014-.028.036.036 0 01.014-.03c0-.038-.057-.133.02-.133zm.039-.288a.07.07 0 01.019-.058c.019-.019.038.02.038.02 0 .038.02.095.02.114-.02.058-.058.058-.097.039 0-.02 0-.096.02-.115zm.326 1.055c-.058-.077.019-.077.096-.058.019 0 .019.02.038.038 0 .02 0 .02-.02.039a.041.041 0 00.04.038c.038.039.095-.057.153-.019.057.038.076.115.134.153a.146.146 0 01.077.039c.019.019.019.019.019.038.019 0 .038 0 .038.02.04.053.072.11.096.172.02.038.096.153.038.173-.038.019-.057-.058-.057-.077-.02-.038-.058 0-.077-.02-.038-.018-.057-.076-.096-.076-.038-.02-.057.058-.096.02-.057-.02-.057-.058-.115-.078-.038-.019-.096-.038-.076-.076a.07.07 0 00.019-.058c0-.038 0-.038-.02-.057a.167.167 0 00-.115-.058.115.115 0 01-.076-.019.273.273 0 00-.039-.058c-.019 0-.038-.019 0-.038.02 0 .039-.02.058-.02l-.02-.018zm.709.096v-.02c.058 0 .135.058.115.096a.041.041 0 01-.038.039c-.02-.02-.02-.02-.02-.039a.07.07 0 01-.018-.057c-.02 0-.039 0-.039-.02zm-.019.114l.02-.018c.018 0 .018.019.018.038v.038c-.019.02-.019.02-.038.02-.019.038-.057.019-.038-.02.019-.019.057-.019.038-.057zm.134 0c.058-.019.058.116.02.135-.039.02-.058-.115-.02-.134zm.02.173c.019-.019.038-.019.057-.038v.077c-.019.019-.019.076-.038.076-.039.02-.02-.038-.039-.057 0-.02-.019 0 0-.038l.02-.02zm-.94.192h.192c.038 0 .019.02.019.058 0 .038-.02.038-.039.076-.057.039.02.096.058.135.02.038.038.038.057 0 .02-.039.039-.039.039-.077.019-.038.038-.058.038-.077.02-.038.02-.076.038-.096.077-.057.058.115.058.154a.173.173 0 00.02.096c.015.03.021.063.018.096a.332.332 0 00.02.191v.173a.144.144 0 01-.02.096c0 .038-.038.057-.038.077-.02.038-.038.057-.058.096 0 .019-.038.038-.057.057a.1.1 0 01-.038.077.262.262 0 01-.058.077c-.057.038-.096.076-.153.115h-.077a.822.822 0 00-.096.019c-.038 0-.058 0-.077-.02-.019-.018-.019-.057-.038-.095a.72.72 0 01.02-.192c-.04.02-.059.057-.078.038-.038-.019-.019-.038-.038-.076-.038-.058-.058-.116-.134-.135a1.12 1.12 0 00-.365.039c-.019 0-.057-.039-.077-.039-.019-.019-.038-.057-.019-.076a.145.145 0 00.039-.077.209.209 0 00.019-.096.1.1 0 01.038-.077c.02-.038.02-.057.039-.096a.224.224 0 01.115-.115.683.683 0 00.172-.076h.039c.019 0 .019-.02.038-.02.02-.038.038-.038.058-.057a.233.233 0 01.172-.077c.058-.02.096-.077.154-.096zm-.211 1.42a.072.072 0 01.057.019v.019h.039c.019-.02.038-.038.057-.038.039.019.039.038.02.057l-.058.058c-.02 0-.02.038-.038.057-.039.02-.077.02-.077-.038-.039.02-.077-.02-.077-.058 0-.019.038-.057.058-.076h.019zM10.67 6.713c.027 0 .053.006.076.02.039 0 .039 0 .058-.02.038.02.02.058 0 .077a.205.205 0 01-.115.038c-.038 0-.077 0-.077-.038 0-.039.039-.058.058-.077zm3.03.557c.074.046.145.097.212.153a.148.148 0 00.038.057c0 .039 0 .039.019.058.02.02.115.077.077.096-.02.02-.115-.02-.134-.038-.02-.02-.02-.096-.039-.116-.057-.076-.153-.115-.192-.191a.019.019 0 00.014-.006.019.019 0 00.005-.014zm.442.019s.096.038.038.057a.097.097 0 01-.096-.02c.02 0 .039-.018.058-.037zm.038.095c.02.02.02.02 0 .039s-.038 0-.057 0c-.02 0-.02-.039 0-.039h.057zm-.153.269a.276.276 0 00.057.038c.02 0 .096-.019.096 0 .02.039.058.039.02.058-.02.02-.077.038-.077.058 0 0-.02.057-.039.057-.038-.02-.02-.077-.038-.096 0-.019-.096-.096-.02-.115zm.153.153c.02.02 0 .058 0 .077.02.02.038.02.058.038a.868.868 0 01-.02.096c.02.02.02.077.02.096l-.02.02c0 .019.02.038 0 .038a.019.019 0 01-.005.014.019.019 0 01-.014.006.07.07 0 01-.019.057c0 .019-.02.019-.038.019-.039.019-.077.057-.115.057 0 .02-.02.077-.058.058-.02-.02 0-.077.02-.077.018-.038.038-.057.057-.096.019-.019.038-.019.077-.019-.02-.038-.058-.058-.058-.077 0-.019.058-.057.058-.096.019-.019-.02-.076 0-.115.019-.019.019-.096.057-.096z"/><path fill="#3A76BC" d="M14.123 8.344c-.039-.02-.135.038-.096.057.038 0 .096-.02.096-.057zm-.116.076c0-.019-.019-.019-.019-.038-.019.02-.077.096-.038.115.019.02.019-.02.038-.038 0 0 .039-.02.02-.039zm.499-1.592a.156.156 0 00.154-.077c.019-.019.038-.038.057-.038.038 0 .058-.02.096-.038.02 0 .058-.02.077-.02.038-.019.038-.038.076-.057a.56.56 0 01.173.038c.039.02.134.02.134.077.02.02 0 .038.02.077.02.021.033.048.038.077 0 .019-.02.019-.02.038v.038a.266.266 0 01-.057.077.1.1 0 01-.076.038c-.02 0-.02-.096-.02-.115-.019 0-.038 0-.038.02a.041.041 0 01-.038-.039.266.266 0 01-.077.058.173.173 0 01-.096-.02h-.192a.115.115 0 01-.077-.019c-.019 0-.038-.019-.038 0 0 .02-.02.02-.038.039h-.23c.038-.077.134-.077.172-.154zm.384.633c.019 0 .057.02.057.039 0 .038-.057.019-.076.019-.02 0-.058-.02-.058-.039a.115.115 0 01.077-.019zm-.135.058c.02.019.039.019.058.038.02.02-.02.038-.038.038-.02-.019-.058 0-.077-.038-.02-.038.02-.02.057-.038zm.921.421a.148.148 0 01.058.039c.019.02.038.058.019.077-.039.019-.058-.039-.058-.058-.019-.019-.038-.038-.019-.057zm.326-.978c.02-.019.02-.038.039-.019.019 0 .019 0 .038.02a.085.085 0 01.02.095c-.02.039-.04.039-.078 0-.038-.019-.019-.076-.019-.096zm.288-.364a.191.191 0 01.077-.096c.019-.02.115-.038.096.02h-.058c-.02.018-.038.038-.038.057a.041.041 0 00-.039.038c-.019 0-.057.02-.038-.019zm.134-.019a.173.173 0 01.096-.02c.02 0 .02-.057.02-.057a.264.264 0 01.057-.077.173.173 0 01.096-.019c.077 0 .134-.019.192.02.019.019.019.019.057 0a.173.173 0 01.096.019c.038.019.058.038.096.057a.265.265 0 00.077.058c.019.019.038 0 .077.019.038 0 .057.019.095.038.02.02.02.02.02.077 0 .038.019.057.038.096.02.019 0 .038.02.077.023.026.037.06.038.095.019.02.019.039.038.058a.102.102 0 01.057.077c0 .076-.057.096-.115.096a.56.56 0 01-.172-.039.545.545 0 01-.173-.115c-.02-.019-.038-.057-.058-.057-.038-.02-.057-.039-.057-.058 0-.02.02-.077-.02-.077-.038 0-.057-.019-.095-.019-.058 0-.115-.019-.173-.019a.209.209 0 00-.096.02.026.026 0 01.006.008.025.025 0 010 .02.026.026 0 01-.006.01h-.038c0 .095.096.038.153.076.077.02.135.02.192.039.039.019.039.019.058.057a.263.263 0 00.076.058c.039.019.058.019.096.038.039 0 .039.038 0 .058-.019 0-.057 0-.057.019-.02.038 0 .057 0 .096 0 .019 0 .057-.038.057-.02-.019-.058-.019-.096-.038-.039-.02-.173.038-.173-.038 0-.039.038-.058.038-.077.02-.039-.019-.039-.038-.058-.038-.019-.058-.019-.096-.038a.106.106 0 01-.096-.058c-.02 0-.038 0-.038-.019-.02-.019-.02-.038-.039-.057-.019-.039-.038-.058-.076-.058-.058 0-.058-.038-.077-.077V6.79c-.02-.039-.02-.02-.038-.02-.02-.019-.02-.019-.02-.038s-.038-.038-.038-.057c.02-.039.077 0 .077.019.019 0 .038-.038.038-.058a.07.07 0 01.02-.057zm1.247.172c.038-.038.058-.038.096-.019.038.039.077.039.096.058.027.031.06.057.096.076 0 .02.02.039 0 .058H17.9c-.038 0-.057-.02-.096-.038-.019-.02-.019-.039-.038-.039-.02-.019-.038 0-.058 0-.038.02-.057.02-.076-.019-.02-.02-.02-.057 0-.057.019 0 .038 0 .038-.02zm-1.438.019c0-.019.019-.057.057-.038.02.02 0 .058 0 .096-.038-.019-.057-.019-.057-.057zm-.096.116c0-.02.019-.039.038-.058.02-.019.077-.019.058.02a.145.145 0 01-.039.076c-.019.038-.057 0-.057-.038zm.153-.019c.038-.02.058.019.058.057.019.038 0 .058-.02.096-.019 0-.057-.038-.076-.058-.02-.019.019-.038.019-.038.02 0 0-.038 0-.057h.02zm-.115.115c.02-.02.038-.02.077 0 .019.019.019.019.019.057-.02 0 0 .039 0 .039 0 .019.019.019.038.019.02 0 .02.019.039.038 0 .02.019.02.038.038 0 .02-.02.02-.02.039a.127.127 0 01-.114-.02.124.124 0 01-.096-.038.431.431 0 00.019-.076c0-.039-.038-.077 0-.096z"/><path fill="#3A76BC" d="M19.052 10.281a.483.483 0 01-.076-.134c0-.02-.058-.039-.058-.058a.144.144 0 00-.077-.019c-.057-.02-.096-.038-.153-.058-.02 0-.039-.019-.058-.019h-.096a.162.162 0 000-.134c-.038-.038-.057-.077-.096-.096a.277.277 0 01-.134-.038c-.02-.02-.038-.039-.038-.058l-.058-.057c-.038-.02-.076-.058-.115-.077-.038-.02-.077-.077-.115-.096a.07.07 0 01-.058-.02c-.038 0-.057-.038-.076 0a.163.163 0 01-.115.058l.057-.057c.02-.02.02-.02.02-.039-.02 0-.02-.019-.039-.019a.73.73 0 01-.192.058c-.019 0-.038.038-.057.057 0 0 0-.019-.02 0h-.019a.041.041 0 01-.038.039.115.115 0 00-.077-.02c-.019 0-.057.039-.076.039-.039-.02-.058-.02-.077-.038a.088.088 0 010-.096c0-.058.019-.135-.058-.135-.057 0-.134.058-.172 0-.02-.057.095-.115.019-.153-.058-.038-.115.02-.173.038a.058.058 0 01-.077 0c-.019-.019-.038-.057-.057-.076a.494.494 0 01-.039-.096c0-.039.02-.039.039-.077a.126.126 0 01.038-.096c.02-.02.039 0 .077 0 .02 0 .058-.02.077-.02.038-.018.057-.018.096-.038.038 0 .057-.019.095-.019a.15.15 0 01.077.077c.02.02 0 .038 0 .077 0 .019.039.076.058.038a.123.123 0 00.019-.173c0-.019-.02-.038-.02-.057 0-.038 0-.058.02-.077a.835.835 0 01.115-.134.422.422 0 00.02-.154c.018-.038.018-.115.076-.134.058-.038.02-.096.058-.134.019-.038.057-.077.095-.134.02-.02.02-.02.02-.058 0-.02-.058-.02-.039-.057h.039c.019-.02 0-.02-.02-.039-.019 0-.057.02-.076.02.019.019.038.019.038.057-.02.02-.038.038-.058.02-.019-.04 0-.04-.038-.04-.02-.018-.057 0-.077 0 .02-.018.039-.057.058-.057.038 0 .058-.019.096-.019.057 0 .134-.02.134-.077.02-.038-.02-.057-.038-.076a.067.067 0 00-.02-.039c-.019 0-.038.02-.057.02a.901.901 0 01-.173-.058.264.264 0 01-.153-.096c0-.02-.02-.058-.058-.038-.019.019-.038.019-.076 0a.271.271 0 00-.173-.02c-.038 0-.057 0-.057.039-.02.057 0 .057.038.076.019.02 0 .039.019.058.02.02.058.038.058.058 0 .057.019.115.019.172-.039-.019-.058-.057-.096-.057-.058-.02-.077 0-.115-.039a.272.272 0 00-.115-.038c0-.02-.039 0-.039-.02l-.038-.038c-.038-.038-.038-.057 0-.076.02-.039.057-.058.077-.096 0-.02-.039-.096-.02-.096a.418.418 0 01.096-.058.344.344 0 00-.134-.096.263.263 0 01-.077-.057c-.038-.02-.038-.058-.076-.058-.02-.019-.039-.019-.058.02 0 .019.02.057.02.076.018.038.057.058.038.096-.039.038-.058.02-.096.038a.476.476 0 01-.173-.019c-.038-.019-.057-.038-.096-.057a.1.1 0 00-.076-.039c-.058-.019-.116 0-.173-.038-.058-.02-.115-.058-.173-.077-.019-.019-.038-.038-.057-.038a.041.041 0 00-.038-.038c-.04-.02-.097.019-.154.038-.038.019-.096.019-.115.038a.145.145 0 00-.039.077c0 .02-.019.02-.038.02-.057.018-.038 0-.038.037l-.039.039a.118.118 0 00-.019.134c.02.038.02.038 0 .058-.02.038-.02.038-.057.019-.039 0-.096-.02-.135.02l.039.037h.038a.144.144 0 00.096.02c.038-.02.038-.039.077-.02.019.02.057 0 .076 0a.394.394 0 01.211 0c.058 0 .096.077.116.115.057.116.095.23.153.346a.019.019 0 00.02.019c0 .02.018.038.018.058v.095a.788.788 0 00-.019.211.116.116 0 00.02.077c0 .02.038.058.038.077a.418.418 0 00.057.096.265.265 0 00.058.077c.014.062.04.12.076.172a.474.474 0 00.116.154c.038.019 0-.058 0-.077a.1.1 0 01-.039-.077c.02-.038 0-.038-.019-.077-.02-.019-.058-.038-.077-.076-.019-.039 0-.058.039-.039.019 0 .038.039.038.058.02.038.038.057.038.077.02.038.039.057.058.096.02.019.038.019.058.057a.145.145 0 00.038.077c.019.019.057 0 .077.038.019.02.019.058.038.077.058.115.153.23.268.23.039 0 .077-.02.096 0 .039 0 .058.02.096.038a.417.417 0 00.154.096c.019 0 .057-.019.076 0 .039.02.039.058.058.077a.14.14 0 00.077.038h.038c.02.02.02.039.039.058.019.02.019-.038.038-.058.019-.038.038-.038.077-.019a.193.193 0 01.057.173.264.264 0 00-.057.077c-.02.019-.02.057-.039.096a.521.521 0 000 .172.144.144 0 01.02.096c0 .038.019.058.019.096.038.057.019.115.038.173a.843.843 0 01-.02.095c.02.02.04.058.058.077a.15.15 0 00.077.077v.096a.072.072 0 01-.02.057c0 .02-.018.039-.018.058a.277.277 0 01-.039.134c0 .02-.019.039-.019.058l-.038.019c0 .038-.02.057-.02.077-.019.019-.038.038-.038.057v.058c0 .038 0 .019-.019.038l-.057.115a.4.4 0 00-.077.115c0 .039-.039.077-.058.115.02 0 .039.02.02.039 0 .019-.039.019-.058.038-.02.02-.077.039-.077.077-.019.038.02.115-.019.134-.02.02-.058.077 0 .096-.038.039-.077.077-.02.134 0 0 .04.02.04.039.018.019 0 .057 0 .077.037 0 .037-.02.057-.02.019.02.019.02.038.02 0 .019.038.019.038.019.02-.02.02-.02 0-.039v-.076c-.019-.058-.038.019-.057-.02 0-.019 0-.019.019-.038.02-.02.02 0 .038-.02.039 0 .039-.018.058-.057a1.06 1.06 0 01.096-.153.596.596 0 01.134-.173c.058-.038.096-.076.134-.096a.798.798 0 00.192-.076l.134-.135c.039-.038.116-.057.154-.096.038-.019.057-.019.096-.038a.1.1 0 00.077-.038c.057-.039.096-.058.153-.096.038-.039.077-.096.115-.115a.31.31 0 00.134-.077c.039-.038.096-.077.116-.134.019-.039.019-.058.057-.077a.115.115 0 01.02-.077.673.673 0 01.095-.153.82.82 0 00.096-.135.145.145 0 01.038-.076c.02-.02 0-.039-.019-.077zM17.23 8.037c.02-.02.038 0 .058-.02.019-.019.038 0 .038.02.019.019-.096.019-.115.019l.019-.02zm-.192-.02a.115.115 0 01.077.02c.019.019.077.038.038.057-.019 0-.057-.019-.076-.019-.02-.02-.096-.057-.039-.057zm-.038.02c-.02.019-.077.134-.115.115 0-.02.019-.02.019-.039s.019-.038.019-.057a.042.042 0 01.031-.038.041.041 0 01.046.019zm-.192-.096a.208.208 0 00.096-.02c.019-.019-.058-.038-.038-.076.019-.02.076.038.095.038.02.02.02.058.039.096h-.115c-.02 0-.096 0-.077-.038z"/><path fill="#3A76BC" d="M17.671 7.922c0 .019-.02.038-.038.057-.039 0-.02-.038-.02-.057.02-.02.039-.058.058-.058.038 0 .038.038 0 .058zm.019-.25c.02 0 .039-.038.058-.02.019.02-.02.04-.02.058.02.02.097 0 .097.039a.037.037 0 01.005.034.037.037 0 01-.025.023.041.041 0 01-.038-.038c-.02-.02-.096.058-.115.02-.02-.04.02-.097.038-.116zm-.44 1.362a.608.608 0 00.172.058.041.041 0 01.038.038c0 .02-.058.02-.077.02a.574.574 0 01-.153-.078c-.02 0-.038-.019-.038-.057 0-.02.057.02.057.02zm.402.096c.038 0 .096-.02.115.038 0 .039-.038 0-.038 0h-.077a.07.07 0 01-.058-.019c-.019 0-.019-.019-.038-.038-.02-.02.038-.02.038-.02.039 0 .039 0 .058.039zm.173.058c.019-.02.019-.02.057 0 .01.01.017.023.02.038 0 .02-.058-.02-.077-.02v-.018zm-1.094-1.88c.039.019.058.019.077.038 0 .038 0 .058-.038.038a.1.1 0 01-.077-.038v-.038h.038zm2.321-2.475l.019.019-.134.02.019-.039h.096zM5.97 7.557l.096.019-.038.154 1.151.287.057-.153.096.038-.211.883-.115-.019.038-.173-1.151-.307-.038.173-.115-.02.23-.882zm.365-.978l-.269.652.096.058.077-.173 1.112.441-.057.154.096.038.172-.441-.096-.058-.076.154-.749-.288 1.055-.134.25-.461-1.151-.633.096-.153-.096-.058-.249.441.095.058.096-.154.71.403-1.112.154zm.555-1.055c.313-.467.659-.91 1.037-1.324l.25.23-.097.096-.096-.076a1.217 1.217 0 00-.326.249l.863.69v.269l-.287.403-.096-.058.096-.134-.921-.729c-.071.121-.13.25-.173.384l.096.096-.057.076-.288-.172zm1.152-1.439c.364-.368.755-.707 1.17-1.017l.192.269-.077.077-.096-.115a1.525 1.525 0 00-.556.345l.345.384s.192-.096.173-.154l-.077-.077.077-.076.249.307-.077.057-.096-.096-.153.134v.039c.02 0 .345.364.345.364l.02-.019a1.32 1.32 0 00.325-.384.331.331 0 00-.057-.076c-.038-.039-.02-.039-.02-.039l.097-.076.21.307-.67.537h-.461l-.671-.748-.116.134-.076-.077zm3.568-2.052l-.039-.115.633-.173.806.748-.077-.767-.173.019-.019-.096.499-.077.019.115-.172.039.153 1.285-.441.057-.787-.748.211.768.135-.039.019.115-.422.115-.039-.095.154-.039-.326-1.151-.134.039zm3.53.882l-.538-1.362-.46-.02-.595 1.325-.134.019.019.115c.146-.015.294-.021.441-.02l-.02-.134h-.114l.115-.287.537-.02.134.307-.153.02.019.115c.115-.02.882.076.882.076v-.115l-.134-.019zm-1.229-.48l.25-.517.192.517h-.442zm1.459-.46s.057-.288.076-.326A6.824 6.824 0 0117 2.052l-.096.326-.134-.038.038-.135a2.516 2.516 0 00-.326-.172s-.288 1.093-.288 1.112l.154.058-.02.115s-.805-.25-.901-.25l.019-.095.173.019.287-1.094-.383-.019-.039.115-.115-.019zm1.84.154s.825.364.825.383c.02.02-.038.115-.038.115l-.153-.076-.499 1.055.154.095-.058.096a8.5 8.5 0 00-.825-.383l.02-.096.172.057.499-1.074-.154-.096.058-.076zm2.11 1.227l-.594-.422a.675.675 0 00-.997.46.614.614 0 00.192.634c.156.146.323.28.498.402a.74.74 0 00.979-.21.726.726 0 00-.077-.864zm-.248.096a1.7 1.7 0 01-.422.672s-.135.191-.307.115c0 0-.116-.077-.135-.096a.198.198 0 01-.076-.154c.019-.076 0-.134.076-.23.058-.096.307-.46.307-.46s.115-.154.192-.154a.374.374 0 01.153.02c.039 0 .096.057.096.057a.213.213 0 01.116.23zm.095 1.4l.02-.019h.21l-.038.02h-.192zm.077-.076l.71-.71-.115-.134.077-.077.479.499-.115.978.48-.364-.096-.135.095-.076.307.422-.095.076-.096-.134-1.055.748-.154-.192v-.134l.115-1.093-.326.326h-.21zm2.494 1.592l-.25-.46-1.4.172-.096-.134-.077.057.25.384.076-.058-.057-.134.307-.038.268.499-.21.23-.135-.25-.096.039.422.978.096-.038-.02-.135.922-1.112zm-1.113-.23v.019l.614-.077-.403.46-.21-.402zm1.496 1.515l-.038-.192.096-.019.25.92-.116.04-.057-.193-1.132.288s.058.403.153.441h.173v.134l-.345.058c-.067-.447-.163-.89-.288-1.324l.077-.038.077.173 1.15-.288zM8.023 13.849l-.326-.595a.688.688 0 00-1.075.077.616.616 0 00-.096.633s.23.46.288.537a.716.716 0 00.96.115.796.796 0 00.249-.767zm-.23.038a4.22 4.22 0 01-.672.422.257.257 0 01-.288-.019s-.096-.096-.096-.134a.143.143 0 010-.154c.039-.057.039-.115.135-.172l.48-.288s.172-.096.23-.058a.296.296 0 01.134.058.28.28 0 01.057.096s.115.134.02.25z"/><path fill="#3A76BC" d="M6.948 11.163l-.019-.191.115-.02s.096.69.115.73a5 5 0 01-.613.44l.748.096.249.633-.096.058-.096-.192-1.112.403.057.173-.096.038-.307-.883.096-.038.077.173.748-.288-.978-.096-.077-.288.844-.537-.806.135.039.153-.096.038-.096-.498.096-.02.038.173 1.17-.192zm.442 4.028l-.116-.153-.095.058.326.422.076-.058-.115-.153.652-.499-.249 1.132.365.364.901-.94.096.096.058-.096-.288-.288-.077.077.096.115-.575.576.25-1.132-.366-.441-.095.076.095.096-.939.748zm2.11 1.324l-.365.403c.142.119.304.21.48.268l.096-.153.115.077-.192.288s-.998-.71-1.113-.845l.058-.076.115.096.748-.94-.096-.096.058-.096c.317.283.657.54 1.016.767l-.191.307-.096-.057.076-.154s-.172-.268-.326-.326l-.326.422.154.115.076-.077.096.058-.192.307-.095-.038.076-.135-.172-.115zm.882.058l.153-.307c.437.24.893.446 1.362.614l-.095.326-.135-.039.039-.134s-.269-.192-.288-.211l-.48 1.093.154.058-.039.096-.844-.365.039-.096.172.077.46-1.093s-.249-.077-.325-.038l-.077.076-.096-.057zm1.745 1.822c.077.02.96.173.96.173v-.116h-.096l-.269-1.361-.518-.135-.844 1.094-.134-.02-.038.077.402.154.058-.077-.134-.058.192-.249.613.154.039.306-.23-.019v.077zm-.345-.633l.384-.441.134.594-.518-.153zm-.038-14.54l-.02.02a.39.39 0 01-.095.018.256.256 0 01-.096-.057.89.89 0 00-.096-.192c-.02 0-.115-.115-.211-.096a.325.325 0 01-.154 0 .396.396 0 00-.268-.71 8.28 8.28 0 00-1.343.71l.077.077.134-.077.576 1.036-.135.096.077.077.748-.422-.057-.116s-.058.058-.096.058c-.039.02-.039 0-.039 0l-.249-.46.211-.096a.756.756 0 00.115-.039c.02 0 .058.039.058.039s.172.326.21.383c.02.039.097.039.116.039.019.019.21-.039.21-.039l.365-.134-.038-.115zm-1.036-.288a1.337 1.337 0 01-.268.154l-.27-.48.289-.134s.076-.02.115.02c.07.11.134.226.191.344 0 0-.019.077-.057.096zm4.354 15.518l-.019.02s-.115 0-.153-.039c0-.019 0-.019-.02-.019.02 0 .02-.02 0-.096a.519.519 0 00-.21-.345s.287-.154.287-.384a.389.389 0 00-.268-.364.737.737 0 00-.173-.02c-.41.014-.82 0-1.228-.038l.02.115.134.02-.058 1.17h-.134s-.02.115 0 .115l.844.038-.02-.115h-.114l.019-.537h.269c.019-.02.076.096.076.096l.02.422c0 .019.095.096.134.115.038 0 .633-.039.633-.039l-.039-.115zm-.728-.67s0 .057-.039.076h-.307l.039-.537h.268l.058.057c0 .039-.02.403-.02.403zm.632-.634l.921-.153a.49.49 0 01.038.096c0 .019-.134 0-.115.038 0 .02.442.345.442.345a2.72 2.72 0 00.249-.575l-.115.038-.038-.096.422-.153.057.077-.134.076-.326.787.134.518.153-.02.039.096-.883.211-.038-.076.173-.058-.135-.518-.71-.537-.114.02-.02-.116zm2.552-.825c.4-.218.773-.482 1.112-.786l.23.287-.095.096-.116-.115c-.16.039-.31.11-.44.211l.287.46.173-.134-.058-.115.115-.076.23.287-.115.096-.076-.096-.192.135.268.44.134-.095.077.096-.767.518-.077-.096.135-.096-.614-1.017-.173.077-.038-.077zm1.247-.863l.575-.614.096.096-.096.096.633.652a.276.276 0 00.288 0c.134-.076.23-.153.192-.326a.266.266 0 00-.116-.192 26.005 26.005 0 01-.633-.556l-.096.134-.095-.096.268-.345.096.077-.077.115.652.556c.076.11.129.234.154.365a.595.595 0 01-.058.23c-.038.038-.422.441-.422.441a.862.862 0 01-.287.115.43.43 0 01-.269-.115c-.057-.038-.652-.652-.652-.652l-.096.096-.057-.077zm1.189-1.208l-.077-.058.27-.46 1.15-.23-.69-.346-.078.134-.096-.057.192-.384.096.04-.058.133 1.171.556-.21.461-1.133.191.614.461.096-.173.095.058-.287.422-.077-.058.096-.153-.978-.653-.096.116zm1.803-2.974a.68.68 0 00-.748.365l-.326 1.074.096.038.057-.153 1.113.384-.058.191.115.039c.146-.4.261-.81.346-1.228a.72.72 0 00-.595-.71zm.46.883l-.076.287s-1.132-.364-1.132-.383c0 0 .019-.134.038-.23a.1.1 0 01.055-.058.1.1 0 01.08 0s.844.23.959.269c.115.019.076.115.076.115zM6.162 9.84l.153-.422.115.422h.442l-.365.268.134.422-.345-.268-.383.287.153-.441-.345-.268h.441zm15.556.115l.154-.422.115.422h.441l-.364.268.153.422-.364-.268-.384.288.154-.442-.346-.268h.441z"/></svg>