<svg xmlns="http://www.w3.org/2000/svg" fill="none" aria-hidden="true" viewBox="0 0 28 20"><path fill="#D6D6D6" d="M0 0h28v20H0V0z"/><path fill="#333" d="M6.754 7.143L8.2 9.544h.051L9.7 7.143h1.355l-2.02 3.278 2.052 3.28H9.71l-1.46-2.386h-.051L6.739 13.7h-1.37l2.07-3.279-2.045-3.278h1.36zm10.73 3.278a3.86 3.86 0 01-.395 1.814c-.241.48-.614.88-1.075 1.155a3.16 3.16 0 01-3.083-.002 2.836 2.836 0 01-1.076-1.156 3.853 3.853 0 01-.395-1.81 3.86 3.86 0 01.395-1.815 2.813 2.813 0 011.076-1.153 3.168 3.168 0 013.083 0c.46.274.833.675 1.075 1.153a3.86 3.86 0 01.395 1.814zm-1.194 0a3.064 3.064 0 00-.231-1.26 1.757 1.757 0 00-.643-.778 1.82 1.82 0 00-1.888 0c-.286.191-.51.462-.642.779a3.052 3.052 0 00-.232 1.26c-.013.431.066.86.232 1.26.133.316.356.587.642.778a1.822 1.822 0 001.888 0 1.76 1.76 0 00.643-.778c.165-.4.244-.829.231-1.26zm1.961 3.279V7.143h4.201v.996H19.44v1.78h2.725v.996H19.44V13.7h-1.188z"/></svg>