<svg xmlns="http://www.w3.org/2000/svg" fill="none" aria-hidden="true" viewBox="0 0 28 20"><path fill="url(#paint0_linear)" d="M28 0H0v20h28V0z"/><path fill="#333" d="M7.511 14.531v-8.78h3.154c.646 0 1.188.127 1.626.378.44.252.773.597.997 1.037.227.438.341.935.341 1.492 0 .563-.114 1.063-.34 1.5a2.488 2.488 0 01-1.007 1.034c-.443.248-.99.373-1.638.373h-2.09v-1.308h1.885c.377 0 .687-.068.928-.206.24-.137.418-.325.533-.565.118-.24.177-.516.177-.828 0-.311-.059-.586-.177-.823a1.227 1.227 0 00-.537-.553c-.241-.134-.552-.201-.932-.201H9.035v7.45H7.51zm9.625.116c-.495 0-.938-.133-1.33-.399-.391-.266-.7-.651-.928-1.157-.227-.506-.34-1.12-.34-1.844 0-.731.114-1.349.344-1.851.233-.506.546-.888.94-1.145.395-.26.834-.39 1.319-.39.37 0 .673.066.911.197.238.129.427.284.567.467.14.18.247.35.324.51h.062V5.752h1.49v8.779h-1.462v-1.037h-.09c-.077.16-.188.33-.333.51a1.838 1.838 0 01-.574.454c-.239.126-.538.189-.9.189zm.415-1.273c.315 0 .583-.089.805-.266.222-.18.39-.43.505-.75.115-.32.172-.693.172-1.12 0-.425-.057-.795-.172-1.11a1.58 1.58 0 00-.501-.732 1.258 1.258 0 00-.809-.262c-.331 0-.607.09-.83.27a1.64 1.64 0 00-.5.746 3.26 3.26 0 00-.169 1.089c0 .411.057.778.169 1.101.115.32.283.574.505.76.224.182.5.274.825.274z"/><defs><linearGradient id="paint0_linear" x1="0" x2="28.003" y1="20.502" y2="-.497" gradientUnits="userSpaceOnUse"><stop stop-color="#F3F3F3"/><stop offset="1" stop-color="#C3CFE2"/></linearGradient></defs></svg>