<svg xmlns="http://www.w3.org/2000/svg" fill="none" aria-hidden="true" viewBox="0 0 28 20"><path fill="url(#paint0_linear)" d="M28 0H0v19.997h28V0z"/><path fill="#333" d="M8.48 14.54h1.627v-2.97h1.719c2.073 0 3.187-1.219 3.187-2.91 0-1.677-1.1-2.908-3.166-2.908H8.48v8.787zm1.627-4.279v-3.18h1.49c1.22 0 1.759.645 1.759 1.58s-.54 1.6-1.75 1.6h-1.5zm9.612-2.312H18.39v-1.58h-1.587v1.58h-.956V9.15h.956v3.664c-.009 1.24.912 1.85 2.105 1.815.451-.013.763-.099.934-.154l-.268-1.215a2.02 2.02 0 01-.465.06c-.399 0-.719-.137-.719-.763V9.15h1.329V7.949z"/><defs><linearGradient id="paint0_linear" x1="0" x2="28" y1="20.498" y2="-.502" gradientUnits="userSpaceOnUse"><stop stop-color="#F3F3F3"/><stop offset="1" stop-color="#C3CFE2"/></linearGradient></defs></svg>